<?xml version="1.0" encoding="UTF-8"?>
<svg version="1.1" xmlns="http://www.w3.org/2000/svg" width="1024" height="1024">
<path d="M0 0 C337.92 0 675.84 0 1024 0 C1024 337.92 1024 675.84 1024 1024 C686.08 1024 348.16 1024 0 1024 C0 686.08 0 348.16 0 0 Z " fill="#FEFEFE" transform="translate(0,0)"/>
<path d="M0 0 C0.33 0 0.66 0 1 0 C1.20591331 44.86787339 1.36454284 89.73569685 1.45958797 134.60394944 C1.47084459 139.89872748 1.48249346 145.19350459 1.49438477 150.48828125 C1.49792596 152.06945098 1.49792596 152.06945098 1.50153869 153.68256353 C1.54072117 170.75998433 1.61169351 187.83713299 1.69437516 204.91439225 C1.77848198 222.43185647 1.82851691 239.94917799 1.84679645 257.46683586 C1.85915759 268.27995645 1.89822415 279.09230794 1.9712482 289.90519182 C2.01875203 297.31585637 2.033217 304.72612222 2.0215124 312.13692804 C2.01573641 316.41556217 2.02470645 320.69285073 2.07284927 324.97124672 C2.11659901 328.88777185 2.11889844 332.80204514 2.08809005 336.71867321 C2.084282 338.13604333 2.09574918 339.55355303 2.12394864 340.97064771 C2.32255843 351.56660856 2.32255843 351.56660856 -0.97447598 355.13994098 C-3.26197639 356.69153446 -5.4777547 357.88064037 -8 359 C-8.95310059 359.56098389 -9.90620117 360.12196777 -10.88818359 360.69995117 C-58.9307704 386.40334254 -114.03125701 404.34585742 -169 405 C-170.08764648 405.02433105 -171.17529297 405.04866211 -172.29589844 405.07373047 C-260.60527112 406.95190867 -346.24808122 379.06535746 -415.23583984 323.421875 C-416.446296 322.44627347 -417.66036517 321.47514279 -418.87744141 320.5078125 C-420.72076577 319.03886137 -422.54946212 317.55346914 -424.375 316.0625 C-424.940979 315.61398682 -425.50695801 315.16547363 -426.09008789 314.70336914 C-427.6484375 313.41015625 -427.6484375 313.41015625 -430 311 C-430 306.68917103 -429.83045978 306.30253936 -427.21875 303.2421875 C-426.62827881 302.53956787 -426.03780762 301.83694824 -425.42944336 301.11303711 C-424.79272705 300.37448486 -424.15601074 299.63593262 -423.5 298.875 C-422.19875749 297.33242023 -420.89797286 295.78945409 -419.59765625 294.24609375 C-418.97004395 293.5072998 -418.34243164 292.76850586 -417.69580078 292.00732422 C-415.73304983 289.68401032 -413.82495574 287.32229829 -411.9375 284.9375 C-408.48933798 280.59948972 -404.9978669 276.29793204 -401.5 272 C-396.63688002 266.02340773 -391.79749763 260.02948343 -387 254 C-390.17190088 249.01224432 -393.76985179 244.52782576 -397.5625 240 C-402.01688084 234.64199135 -406.41394429 229.25338401 -410.6875 223.75 C-414.62613867 218.6853174 -418.70280355 213.76629151 -422.87573242 208.89355469 C-426.67346672 204.43801421 -430.28333893 199.85269166 -433.875 195.23046875 C-436.99147918 191.2374798 -440.20533621 187.34689437 -443.5 183.5 C-447.76398004 178.52131876 -451.84416655 173.42649728 -455.85961914 168.24584961 C-459.52376832 163.54211377 -463.34685942 158.99185939 -467.296875 154.52539062 C-468.5742337 153.0531479 -469.78790053 151.52642024 -471 150 C-471.76441406 149.04996094 -472.52882813 148.09992188 -473.31640625 147.12109375 C-476.59447873 141.33727817 -475.27687661 133.40661706 -475 127 C-473.97342285 126.9906543 -472.9468457 126.98130859 -471.88916016 126.97167969 C-467.98592721 126.93102761 -464.0834222 126.86508644 -460.18066406 126.79248047 C-458.50921156 126.76469744 -456.83763808 126.74327709 -455.16601562 126.72900391 C-434.41412463 126.54148682 -413.00877586 123.39274801 -397 109 C-391.09746028 102.39529942 -389.14896089 96.65964245 -386 88 C-417.35 88 -448.7 88 -481 88 C-477 81 -473 74 -469 67 C-441.94 67 -414.88 67 -387 67 C-394.48444617 53.27851535 -400.09428948 46.54471868 -414.78881836 42.16967773 C-421.64057519 40.40839827 -428.26011855 39.35652318 -435.3125 38.875 C-436.87278931 38.75825928 -436.87278931 38.75825928 -438.46459961 38.63916016 C-452.28843009 37.67294034 -466.14915659 37.33967775 -480 37 C-476.66666667 30.33333333 -473.33333333 23.66666667 -470 17 C-420.17 17 -370.34 17 -319 17 C-327 33 -327 33 -329 36 C-330.79702759 36.36076355 -330.79702759 36.36076355 -332.99072266 36.34057617 C-333.81142242 36.34034958 -334.63212219 36.34012299 -335.47769165 36.33988953 C-336.36419403 36.32440567 -337.25069641 36.30892181 -338.1640625 36.29296875 C-339.07127045 36.28872391 -339.97847839 36.28447906 -340.91317749 36.28010559 C-343.81741732 36.26328133 -346.7209691 36.2256226 -349.625 36.1875 C-351.59113583 36.17245799 -353.55728251 36.15876875 -355.5234375 36.14648438 C-360.34922439 36.11336557 -365.17449545 36.06155786 -370 36 C-369.38584229 36.99870117 -368.77168457 37.99740234 -368.13891602 39.02636719 C-367.32282242 40.36637997 -366.5070003 41.70655812 -365.69140625 43.046875 C-365.28780884 43.70155762 -364.88421143 44.35624023 -364.46838379 45.03076172 C-360.53011689 51.52579874 -356 59.26558837 -356 67 C-343.79 67 -331.58 67 -319 67 C-319.66 68.65 -320.32 70.3 -321 72 C-321.37825928 73.00800659 -321.37825928 73.00800659 -321.76416016 74.03637695 C-323.87277288 79.34776911 -326.24823783 84.60636086 -331 88 C-338.77366019 90.02820393 -347.1166898 88.9790593 -355 88 C-355.15239136 89.04969971 -355.15239136 89.04969971 -355.30786133 90.12060547 C-356.308215 96.34279472 -357.733168 101.56589436 -360.6875 107.125 C-361.21923828 108.15173828 -361.21923828 108.15173828 -361.76171875 109.19921875 C-364.63864184 114.613999 -367.87657148 119.4449431 -372 124 C-372.56847656 124.66 -373.13695312 125.32 -373.72265625 126 C-388.02571333 141.54812149 -408.08300177 147.47158793 -428 152 C-427.64397705 152.43119141 -427.2879541 152.86238281 -426.92114258 153.30664062 C-416.24288665 166.24418531 -405.59989856 179.20939043 -395.14453125 192.328125 C-392.90136271 195.12289236 -390.6394877 197.90175056 -388.37524414 200.67944336 C-383.71844236 206.39249644 -379.09378749 212.12427987 -374.5625 217.9375 C-369.81234812 224.02752836 -364.95971348 230.03155143 -359.96972656 235.92724609 C-357.39905236 238.97895331 -355.07310723 241.87934451 -353 245.30078125 C-351.15573883 248.31905127 -349.99273025 250.08886904 -347 252 C-340.71537453 253.14892347 -334.31971655 252.57336138 -328 252 C-329.56056893 249.99846871 -331.12316759 247.99858832 -332.6875 246 C-333.17210693 245.3800415 -333.65671387 244.76008301 -334.15600586 244.12133789 C-336.91448224 240.60685085 -339.70661618 237.12598437 -342.5546875 233.68359375 C-343.13903564 232.97525391 -343.72338379 232.26691406 -344.32543945 231.53710938 C-345.46450299 230.16030735 -346.60870973 228.78774079 -347.75854492 227.41992188 C-350.51462836 224.08332063 -352.70022636 221.20609979 -354 217 C-348.68255836 210.48683736 -343.34708478 203.98883154 -338 197.5 C-331.92740465 190.13023553 -325.86489052 182.75248744 -319.83984375 175.34375 C-315.31602073 169.79069741 -310.72717893 164.29970686 -306.09082031 158.84082031 C-301.65938134 153.61550564 -297.32274669 148.31549321 -293 143 C-290.00400651 139.33004957 -287.00360329 135.66372397 -284 132 C-283.47744629 131.36255859 -282.95489258 130.72511719 -282.41650391 130.06835938 C-275.92151751 122.15044965 -269.40014489 114.25999197 -262.76220703 106.46142578 C-259.45706789 102.56805276 -256.26470718 98.59643365 -253.09375 94.59375 C-250.14916916 90.94598567 -247.10548467 87.3854602 -244.06640625 83.81640625 C-241.32225467 80.58575688 -238.63252191 77.32301946 -236 74 C-232.4724383 69.54906837 -228.81977957 65.21680023 -225.14111328 60.89111328 C-219.83342162 54.64277152 -214.64985745 48.29464224 -209.51171875 41.90625 C-208.29935547 40.40578125 -208.29935547 40.40578125 -207.0625 38.875 C-205.96615234 37.50988281 -205.96615234 37.50988281 -204.84765625 36.1171875 C-203 34 -203 34 -201 33 C-200.29617188 34.00675781 -199.59234375 35.01351562 -198.8671875 36.05078125 C-188.69552566 50.55552912 -178.1835867 64.7989491 -167.53027344 78.95263672 C-163.73282718 84.00381524 -159.98776835 89.09206692 -156.25 94.1875 C-150.58115562 101.90972579 -144.79783023 109.53864353 -138.97509766 117.14526367 C-133.86162934 123.83739912 -128.85088563 130.59955423 -123.87158203 137.3918457 C-119.81289982 142.92021161 -115.66920946 148.37192123 -111.46875 153.79296875 C-108.73239212 157.33329673 -106.0532757 160.91564098 -103.375 164.5 C-97.89586367 171.83255922 -92.35148764 179.11420785 -86.78271484 186.37890625 C-83.38670313 190.8207068 -80.04229004 195.29329456 -76.75878906 199.8190918 C-75.69727631 201.28139473 -75.69727631 201.28139473 -74.61431885 202.77323914 C-74.08159363 203.50807022 -73.54886841 204.24290131 -73 205 C-72.76669327 197.64570616 -72.5898268 190.29222909 -72.48187828 182.93496323 C-72.43002286 179.51714727 -72.35990232 176.10189 -72.24560547 172.68554688 C-70.76102038 154.97729683 -70.76102038 154.97729683 -77.70703125 139.5703125 C-79.42930847 137.99949795 -81.18932283 136.46804134 -83 135 C-84.6796875 133.00390625 -84.6796875 133.00390625 -85.98828125 131.1953125 C-89.89373466 126.03617572 -93.82904172 120.94609212 -98 116 C-96.73063053 113.26637247 -95.37591334 111.07719578 -93.3828125 108.8203125 C-92.60550781 107.93279297 -92.60550781 107.93279297 -91.8125 107.02734375 C-91.255625 106.39957031 -90.69875 105.77179688 -90.125 105.125 C-88.93971682 103.77377718 -87.75482956 102.42220697 -86.5703125 101.0703125 C-85.9712207 100.3887207 -85.37212891 99.70712891 -84.75488281 99.00488281 C-82.14563694 96.02392467 -79.57210914 93.01299293 -77 90 C-72.85197378 85.15035851 -68.68311273 80.3194032 -64.5 75.5 C-52.78005291 62.03898553 -52.78005291 62.03898553 -41.375 48.3125 C-37.57557031 43.62836556 -33.55599792 39.19067472 -29.47265625 34.75390625 C-26.25290481 31.16792716 -23.24094824 27.43298508 -20.21484375 23.68359375 C-17.34689108 20.20866697 -14.31884176 16.89668939 -11.28125 13.5703125 C-7.96992453 9.83940126 -4.86045162 5.9535522 -1.75 2.0546875 C-1.1725 1.37664062 -0.595 0.69859375 0 0 Z " fill="#047259" transform="translate(697,474)"/>
<path d="M0 0 C1.23395508 -0.00349457 2.46791016 -0.00698914 3.73925781 -0.0105896 C23.89021959 -0.04221772 43.88701935 0.80968918 63.8125 4 C64.86445557 4.16661133 65.91641113 4.33322266 67.00024414 4.50488281 C107.5584473 11.16715592 146.25759641 22.59771267 183.4375 40.3125 C184.30793945 40.72580566 185.17837891 41.13911133 186.07519531 41.56494141 C217.73574198 56.7116477 247.39829342 75.93043183 274.4375 98.3125 C271.42980172 101.58977315 268.3567842 103.7145275 264.5 105.9140625 C262.78683594 106.89632812 262.78683594 106.89632812 261.0390625 107.8984375 C259.83856844 108.57817228 258.63804734 109.25785933 257.4375 109.9375 C256.23665679 110.62443675 255.0361327 111.31193169 253.8359375 112 C244.42165422 117.37655456 244.42165422 117.37655456 240.4375 119.3125 C239.74269531 118.75304687 239.04789063 118.19359375 238.33203125 117.6171875 C185.7387768 76.15583862 121.66947512 49.64783653 55.4375 40.3125 C54.37080078 40.16151855 53.30410156 40.01053711 52.20507812 39.85498047 C17.50472925 35.20384926 -18.92867938 35.22157211 -53.5625 40.3125 C-54.55185547 40.44640137 -55.54121094 40.58030273 -56.56054688 40.71826172 C-122.80925796 49.74919144 -186.33387327 77.81578287 -238.5625 119.3125 C-239.44164062 119.99828125 -240.32078125 120.6840625 -241.2265625 121.390625 C-246.40684404 125.46428293 -251.3494455 129.73931188 -256.21484375 134.18359375 C-258.19508804 135.97932277 -260.2081535 137.71317606 -262.25 139.4375 C-271.66062121 147.6381842 -280.56144616 156.73686806 -288.5625 166.3125 C-289.73232422 167.64861328 -289.73232422 167.64861328 -290.92578125 169.01171875 C-309.23735641 190.02544636 -324.81504004 213.52272177 -338.23681641 237.90771484 C-339.43919599 240.08882699 -340.66074121 242.25788765 -341.88671875 244.42578125 C-382.05894422 316.56963112 -393.44497696 404.0156318 -378.5625 499.3125 C-378.35254395 500.33923828 -378.14258789 501.36597656 -377.92626953 502.42382812 C-365.06224952 563.96933562 -338.32353771 621.56339027 -298.5625 670.3125 C-298.12615234 670.84794434 -297.68980469 671.38338867 -297.24023438 671.93505859 C-265.82658835 710.24807206 -227.29655365 741.8234257 -183.60742188 765.20996094 C-181.72113051 766.22697285 -179.85103838 767.26783208 -177.984375 768.3203125 C-143.09208787 787.64406793 -104.41732942 799.75079505 -65.375 807.1875 C-64.61575226 807.33311371 -63.85650452 807.47872742 -63.07424927 807.62875366 C-48.86796538 810.3252802 -34.52182062 812.30624056 -20.0625 812.9375 C-19.25176025 812.97399658 -18.44102051 813.01049316 -17.60571289 813.0480957 C84.29302939 817.1309298 180.92672977 782.43256508 263.6875 709.6875 C274.45837597 699.69793969 285.29287112 689.54171936 294.35546875 677.94921875 C296.25300599 675.54614625 298.23448254 673.24324395 300.25585938 670.94433594 C349.44073998 614.56765753 379.1696754 535.46135464 385.4375 461.3125 C385.5303125 460.25272949 385.623125 459.19295898 385.71875 458.10107422 C386.63415181 446.30710271 386.68086638 434.51142677 386.6875 422.6875 C386.68817474 421.6022403 386.68884949 420.51698059 386.68954468 419.39883423 C386.67257738 402.17068638 386.05600996 385.36730245 383.4375 368.3125 C383.18009033 366.60223633 383.18009033 366.60223633 382.91748047 364.85742188 C377.41609306 329.32209729 367.47345229 294.99754119 352.4375 262.3125 C351.99180664 261.33361816 351.54611328 260.35473633 351.08691406 259.34619141 C340.16932479 235.49908924 327.34374787 212.18755806 310.73828125 191.77734375 C308.9935669 188.47129343 309.62582222 186.93181552 310.4375 183.3125 C311.19664764 181.03149141 312.01238434 178.76886029 312.87109375 176.5234375 C313.10909195 175.89772858 313.34709015 175.27201965 313.59230042 174.62734985 C314.09316833 173.31371322 314.5967042 172.001091 315.1027832 170.68945312 C315.8746394 168.68843484 316.63819627 166.68440338 317.40039062 164.6796875 C321.45303861 154.07599438 321.45303861 154.07599438 323.4375 150.3125 C328.68903015 154.54014692 332.74934773 158.90387962 336.75 164.3125 C337.31195068 165.06160645 337.87390137 165.81071289 338.45288086 166.58251953 C340.12408567 168.81886262 341.78224665 171.06433531 343.4375 173.3125 C344.1171582 174.22660645 344.1171582 174.22660645 344.81054688 175.15917969 C355.39916134 189.42688901 364.8176781 204.55932562 373.27929688 220.17675781 C374.07986576 221.65301763 374.88623704 223.12614026 375.69726562 224.59667969 C397.81895297 264.79260491 412.25949367 309.03299366 419.4375 354.3125 C419.63504883 355.52711914 419.83259766 356.74173828 420.03613281 357.99316406 C423.35654708 379.46445173 423.83372017 400.95749181 423.8705101 422.64355469 C423.8749165 424.7721614 423.88397373 426.90070867 423.89370728 429.02929688 C424.17664447 507.19449911 401.78549269 585.4169851 359.4375 651.3125 C358.88739258 652.17133789 358.33728516 653.03017578 357.77050781 653.91503906 C349.88158577 666.15554923 341.50035778 677.91540973 332.4375 689.3125 C332.01098145 689.85084473 331.58446289 690.38918945 331.14501953 690.94384766 C326.55026752 696.72037361 321.75319481 702.28326296 316.7734375 707.73046875 C315.50654636 709.13082835 314.24566092 710.53720407 313.01953125 711.97338867 C308.0295456 717.80280414 302.68266967 723.25347723 297.25976562 728.67553711 C295.69889673 730.23858734 294.14622112 731.80947365 292.59375 733.38085938 C286.19862267 739.81137591 279.54113598 745.65963725 272.4375 751.3125 C271.34751067 752.23568794 270.26288361 753.1653077 269.1875 754.10546875 C209.7514442 805.85873893 131.88815832 838.01983274 54.125 848 C53.19518311 848.11956055 52.26536621 848.23912109 51.30737305 848.36230469 C35.3893551 850.28064062 19.51181198 850.51717528 3.5 850.5 C2.45847778 850.49939575 1.41695557 850.4987915 0.34387207 850.49816895 C-15.04622746 850.47393815 -30.27332802 850.23902467 -45.5625 848.3125 C-46.61066895 848.18359375 -47.65883789 848.0546875 -48.73876953 847.921875 C-136.03107659 836.85502932 -218.14438357 798.64752139 -283.17578125 739.48046875 C-284.76748746 738.03464724 -286.36913226 736.59969249 -287.98046875 735.17578125 C-296.76336398 727.39824128 -305.24885167 719.2373927 -312.859375 710.296875 C-314.85964193 707.96628876 -316.92916328 705.70555926 -319 703.4375 C-323.40000892 698.5486012 -327.54070676 693.51591745 -331.5625 688.3125 C-331.98869629 687.76416504 -332.41489258 687.21583008 -332.85400391 686.65087891 C-376.18967293 630.68901496 -406.07787181 564.78645953 -417.875 494.9375 C-417.99864929 494.21071045 -418.12229858 493.4839209 -418.24969482 492.73510742 C-421.83770396 471.36350123 -422.89388304 450.23984098 -422.82324219 428.59301758 C-422.81185952 425.08278581 -422.8186219 421.57285775 -422.83012009 418.06263638 C-422.87462509 402.05870147 -422.49343008 386.21779234 -420.5625 370.3125 C-420.41651367 369.09393311 -420.27052734 367.87536621 -420.12011719 366.61987305 C-419.72753816 363.61278202 -419.28828488 360.61995932 -418.8125 357.625 C-418.64331055 356.55306396 -418.47412109 355.48112793 -418.29980469 354.37670898 C-411.13793744 310.59454803 -396.86882388 268.65653933 -376.56298828 229.26025391 C-375.56025018 227.30812005 -374.57498293 225.34778113 -373.58984375 223.38671875 C-363.69973462 203.95467749 -351.66388101 185.71379896 -338.5625 168.3125 C-338.11567871 167.71405273 -337.66885742 167.11560547 -337.20849609 166.49902344 C-328.45698001 154.79722327 -319.02728785 143.75157831 -309.0703125 133.06640625 C-307.24980882 131.06725502 -305.55279271 129.07030893 -303.8671875 126.96484375 C-302.72636719 125.65193359 -302.72636719 125.65193359 -301.5625 124.3125 C-300.9025 124.3125 -300.2425 124.3125 -299.5625 124.3125 C-299.29332764 123.71429443 -299.02415527 123.11608887 -298.74682617 122.49975586 C-297.55840599 120.30493903 -296.43460516 118.99955108 -294.61328125 117.31640625 C-294.02047363 116.76460693 -293.42766602 116.21280762 -292.81689453 115.64428711 C-292.17606934 115.06042236 -291.53524414 114.47655762 -290.875 113.875 C-290.20581543 113.25955322 -289.53663086 112.64410645 -288.84716797 112.01000977 C-286.76102573 110.1009283 -284.66437545 108.20423735 -282.5625 106.3125 C-281.93553223 105.74756836 -281.30856445 105.18263672 -280.66259766 104.60058594 C-223.96024935 53.81197948 -153.90157357 21.2696109 -79.5625 6.3125 C-78.76682617 6.14911133 -77.97115234 5.98572266 -77.15136719 5.81738281 C-71.97814091 4.77618621 -66.79379078 3.99831247 -61.5625 3.3125 C-60.59231934 3.17714844 -59.62213867 3.04179688 -58.62255859 2.90234375 C-39.10748521 0.28737692 -19.66505438 0.01793005 0 0 Z " fill="#0D7D58" transform="translate(509.5625,85.6875)"/>
<path d="M0 0 C0.33 0.66 0.66 1.32 1 2 C0.04860198 4.75063924 -0.97620144 7.39868803 -2.09375 10.08203125 C-2.43171097 10.91081284 -2.76967194 11.73959442 -3.11787415 12.5934906 C-4.23813801 15.33613113 -5.3691352 18.07421551 -6.5 20.8125 C-7.28163711 22.72135475 -8.06247179 24.63053826 -8.8425293 26.54003906 C-10.444045 30.45800751 -12.04934088 34.37439289 -13.65771484 38.28955078 C-16.75622668 45.8365327 -19.82209806 53.39666055 -22.88421631 60.95846558 C-23.81782873 63.26315435 -24.75276853 65.56730094 -25.68798828 67.87133789 C-28.96801425 75.9558503 -32.22177001 84.04995888 -35.44580078 92.15698242 C-46.08134552 118.89482183 -57.22065911 145.42806748 -68.36962891 171.95507812 C-73.96716299 185.28101564 -79.48795481 198.63851387 -85 212 C-87.27914676 208.58127987 -88.41774938 205.12126685 -89.6796875 201.25390625 C-89.93372345 200.48755356 -90.1877594 199.72120087 -90.44949341 198.93162537 C-91.26223691 196.47662813 -92.06872809 194.01962932 -92.875 191.5625 C-93.4097392 189.94322159 -93.94489126 188.32407946 -94.48046875 186.70507812 C-95.51584427 183.57410607 -96.54765328 180.44199202 -97.57714844 177.30908203 C-99.1322131 172.58421847 -100.72933222 167.87379926 -102.34033203 163.16772461 C-103 161 -103 161 -103 159 C-103.66 159 -104.32 159 -105 159 C-105.22558594 159.53496094 -105.45117188 160.06992187 -105.68359375 160.62109375 C-107.42648094 163.77070295 -109.71214386 166.35991065 -112.0625 169.0625 C-113.06455869 170.22981968 -114.06585029 171.39779826 -115.06640625 172.56640625 C-115.56414551 173.14664551 -116.06188477 173.72688477 -116.57470703 174.32470703 C-118.58525686 176.6879124 -120.54414643 179.09143529 -122.5 181.5 C-125.78823814 185.53983543 -129.12734761 189.53080427 -132.5 193.5 C-136.55012599 198.2691121 -140.54352113 203.07912432 -144.49609375 207.9296875 C-152.30791948 217.50861889 -160.15972837 227.05229952 -168.16748047 236.46826172 C-171.73028404 240.66328182 -175.21325575 244.91914278 -178.6875 249.1875 C-181.72367366 252.88014364 -184.8184997 256.52121788 -187.9140625 260.1640625 C-190.81244823 263.5805954 -193.671551 267.02504838 -196.5 270.5 C-200.24852646 275.1053325 -204.07084246 279.64204444 -207.91625977 284.16625977 C-210.7954532 287.55954109 -213.63204237 290.98267786 -216.4375 294.4375 C-220.39443418 299.30049424 -224.46435942 304.05700203 -228.55615234 308.80615234 C-232.35163367 313.22031766 -236.05277913 317.70333198 -239.72265625 322.22265625 C-242.28204327 325.34396701 -244.88606729 328.42438684 -247.5 331.5 C-256.15363212 341.44358318 -256.15363212 341.44358318 -264 352 C-264.66 352 -265.32 352 -266 352 C-267.52136824 350.05277209 -268.92348085 348.10185497 -270.3125 346.0625 C-274.1301216 340.58982798 -278.0546419 335.22496272 -282.125 329.9375 C-282.93275879 328.8868335 -282.93275879 328.8868335 -283.75683594 327.81494141 C-284.89753238 326.33203603 -286.03865845 324.84946106 -287.18017578 323.3671875 C-290.48639092 319.06653523 -293.77452932 314.75210762 -297.0625 310.4375 C-297.74175537 309.54635498 -298.42101074 308.65520996 -299.12084961 307.73706055 C-303.65052831 301.78820978 -308.1487503 295.81681268 -312.62426758 289.82714844 C-316.29653232 284.91912754 -320.01741651 280.04975187 -323.75 275.1875 C-328.6036119 268.86342346 -333.36336848 262.48568094 -338 256 C-341.80390519 259.70672513 -345.31185382 263.57870831 -348.75 267.625 C-349.27585693 268.24109131 -349.80171387 268.85718262 -350.34350586 269.49194336 C-354.1969428 274.0203323 -357.97439687 278.60680699 -361.72265625 283.22265625 C-364.28204054 286.34396367 -366.88593791 289.4245003 -369.5 292.5 C-373.61871109 297.34675531 -377.66600931 302.24530894 -381.6796875 307.1796875 C-384.29428789 310.35770346 -386.95641424 313.49235185 -389.625 316.625 C-393.89543802 321.64167055 -398.02232847 326.74621542 -402 332 C-406.42612113 327.86235976 -409.89379216 323.27667985 -413.4375 318.375 C-414.68875217 316.66142188 -415.94005565 314.94788124 -417.19140625 313.234375 C-417.82578613 312.36232422 -418.46016602 311.49027344 -419.11376953 310.59179688 C-422.02285818 306.59452984 -424.9460922 302.60776127 -427.875 298.625 C-428.44371826 297.85115967 -429.01243652 297.07731934 -429.59838867 296.2800293 C-434.0828661 290.1981012 -438.65597829 284.18694207 -443.25 278.1875 C-448.01408732 271.96532856 -452.70043388 265.71089184 -457.21289062 259.30419922 C-460.79676987 254.23493531 -464.51624454 249.27207406 -468.25 244.3125 C-473.29913287 237.60394676 -478.32890487 230.88242884 -483.3125 224.125 C-483.83811523 223.41384033 -484.36373047 222.70268066 -484.90527344 221.9699707 C-490.01402005 215.03250712 -494.99048775 208.01331715 -500 201 C-500.33 227.4 -500.66 253.8 -501 281 C-519.81 281 -538.62 281 -558 281 C-558 221.6 -558 162.2 -558 101 C-499.0630217 101 -499.0630217 101 -494.20825195 105.75488281 C-493.72316162 106.39780273 -493.23807129 107.04072266 -492.73828125 107.703125 C-492.18269531 108.42814209 -491.62710938 109.15315918 -491.0546875 109.90014648 C-490.47976563 110.67559814 -489.90484375 111.4510498 -489.3125 112.25 C-488.70019531 113.05703369 -488.08789062 113.86406738 -487.45703125 114.69555664 C-485.62400916 117.12025344 -483.80898585 119.55733511 -482 122 C-481.50806152 122.66177246 -481.01612305 123.32354492 -480.50927734 124.00537109 C-477.79966455 127.65770936 -475.11882895 131.33038134 -472.44677734 135.01025391 C-464.67038146 145.70509469 -456.78968142 156.31406728 -448.75 166.8125 C-443.91464407 173.12728346 -439.15969678 179.47736842 -434.57617188 185.97705078 C-431.0645526 190.94695936 -427.41907781 195.80958019 -423.7565918 200.66894531 C-419.65913589 206.10949627 -415.60247619 211.57914276 -411.5625 217.0625 C-410.98338867 217.84778076 -410.40427734 218.63306152 -409.80761719 219.44213867 C-409.25364258 220.19470947 -408.69966797 220.94728027 -408.12890625 221.72265625 C-407.5992627 222.44211426 -407.06961914 223.16157227 -406.52392578 223.90283203 C-405.06079199 225.9163404 -403.63677909 227.95339395 -402.21484375 229.99609375 C-400.33519155 233.0217795 -400.33519155 233.0217795 -398 234 C-397.75378906 233.43410156 -397.50757813 232.86820313 -397.25390625 232.28515625 C-395.78463776 229.60751742 -394.02247565 227.66956388 -391.9375 225.4375 C-388.76214883 221.97439841 -385.70171816 218.46804744 -382.75 214.8125 C-377.53613562 208.37451094 -372.08958747 202.14836434 -366.65087891 195.90087891 C-362.07030063 190.62664311 -357.53571807 185.31280097 -353 180 C-352.48034668 179.3925293 -351.96069336 178.78505859 -351.42529297 178.15917969 C-349.88544387 176.35802574 -348.34853858 174.55440394 -346.8125 172.75 C-346.34247559 172.20069824 -345.87245117 171.65139648 -345.38818359 171.08544922 C-342.93830944 168.21816688 -342.93830944 168.21816688 -341 165 C-340.34 165 -339.68 165 -339 165 C-337.70532227 166.48632812 -337.70532227 166.48632812 -336.25390625 168.53125 C-333.27573553 172.63558942 -330.15015281 176.57785315 -326.9375 180.5 C-325.79032344 181.90621643 -324.64318922 183.31246741 -323.49609375 184.71875 C-322.91585449 185.42902344 -322.33561523 186.13929688 -321.73779297 186.87109375 C-318.98579309 190.24246758 -316.24319214 193.6214591 -313.5 197 C-312.41671574 198.3333732 -311.3333823 199.66670646 -310.25 201 C-303.75 209 -303.75 209 -302.12524414 210.99975586 C-301.04117052 212.33396273 -299.95702331 213.66810981 -298.87280273 215.00219727 C-296.17519109 218.32168067 -293.47883892 221.64217103 -290.78515625 224.96484375 C-283.97961092 233.35621733 -277.13222309 241.71183486 -270.2578125 250.046875 C-266.15731518 255.01935857 -262.07601107 260.0074256 -258 265 C-254.16054818 263.48147523 -252.32508945 261.22197262 -249.8125 258 C-246.80880624 254.22448968 -243.75707006 250.55939005 -240.5 247 C-236.67829137 242.80270966 -233.08525811 238.46289769 -229.515625 234.05078125 C-226.02487122 229.81742923 -222.41361199 225.69337015 -218.80664062 221.55908203 C-215.55327802 217.82038486 -212.36772494 214.04105163 -209.25 210.1875 C-205.71808913 205.82417215 -202.01293064 201.6616152 -198.234375 197.51171875 C-195.99865467 194.99848768 -193.86622318 192.42688521 -191.75 189.8125 C-187.58915231 184.67305572 -183.28265511 179.67673848 -178.94067383 174.69091797 C-174.95666336 170.1131005 -171.01871683 165.49961534 -167.10742188 160.85961914 C-163.14720402 156.16444845 -159.15191713 151.49993165 -155.14624023 146.84350586 C-154.67774658 146.29831299 -154.20925293 145.75312012 -153.7265625 145.19140625 C-153.32002441 144.71904541 -152.91348633 144.24668457 -152.49462891 143.76000977 C-150.31124037 141.18894672 -148.159382 138.5912584 -146 136 C-175.205 135.505 -175.205 135.505 -205 135 C-201.82383762 131.82383762 -199.38051392 129.79674048 -195.66796875 127.4609375 C-194.11045898 126.47420044 -194.11045898 126.47420044 -192.52148438 125.4675293 C-191.42126953 124.77699463 -190.32105469 124.08645996 -189.1875 123.375 C-186.90857404 121.93348075 -184.63204221 120.48819955 -182.35546875 119.04296875 C-181.25638184 118.34606934 -180.15729492 117.64916992 -179.02490234 116.93115234 C-175.31715441 114.56405903 -171.64843755 112.14471481 -168 109.6875 C-162.33613772 105.87932582 -156.62528287 102.1509186 -150.88989258 98.45141602 C-144.80988568 94.52841414 -138.74669415 90.58006259 -132.6875 86.625 C-122.94944716 80.26976601 -113.20311564 73.92741871 -103.45166016 67.59277344 C-99.30060617 64.89595247 -95.15033841 62.19792203 -91 59.5 C-86.03553414 56.27285549 -81.07092925 53.04592646 -76.10546875 49.8203125 C-57.69047037 37.85680219 -39.2975864 25.86010604 -20.9375 13.8125 C-19.88628967 13.12281128 -19.88628967 13.12281128 -18.81384277 12.41918945 C-16.80148868 11.09875583 -14.7893676 9.77796802 -12.77734375 8.45703125 C-12.18136887 8.06594681 -11.58539398 7.67486237 -10.97135925 7.27192688 C-7.30386625 4.86323583 -3.64829229 2.43761101 0 0 Z " fill="#005951" transform="translate(832,181)"/>
<path d="M0 0 C0.66 0 1.32 0 2 0 C2.25191661 46.64256217 2.44567659 93.28505218 2.56171862 139.92816085 C2.57547598 145.43794819 2.58971357 150.94773419 2.60424805 156.45751953 C2.60713346 157.55439342 2.61001888 158.65126731 2.61299173 159.7813798 C2.66082338 177.52921215 2.74753518 195.27665156 2.84868076 213.024251 C2.95163989 231.242354 3.01266597 249.46025157 3.03497344 267.67863357 C3.05004806 278.91567053 3.09761309 290.15159676 3.18708114 301.3882917 C3.24534154 309.09947179 3.26277565 316.81007982 3.24851515 324.52146389 C3.24148641 328.96739447 3.25206191 333.41138795 3.31126022 337.85697174 C3.70175734 368.69974562 3.70175734 368.69974562 -3.24992371 376.84347534 C-6.12495708 379.60726738 -6.12495708 379.60726738 -9 382 C-10.81072323 383.91050642 -12.52151774 385.8881303 -14.25 387.875 C-14.99765625 388.67679688 -15.7453125 389.47859375 -16.515625 390.3046875 C-18.48171731 392.43771217 -20.38693658 394.59738518 -22.28125 396.79296875 C-26.10536972 401.17721801 -30.13508759 405.32679603 -34.25 409.4375 C-34.99507812 410.18249756 -35.74015625 410.92749512 -36.5078125 411.69506836 C-41.32581073 416.46357375 -46.2297314 420.89098047 -51.56640625 425.07421875 C-54.84687888 427.67016258 -57.93190788 430.46150884 -61.02734375 433.2734375 C-66.42760181 438 -66.42760181 438 -69 438 C-69.33 438.66 -69.66 439.32 -70 440 C-70.27483143 394.63141409 -70.48619924 349.2629165 -70.61278395 303.89366185 C-70.62779194 298.53408701 -70.64332385 293.1745138 -70.65917969 287.81494141 C-70.66232741 286.74797366 -70.66547514 285.68100592 -70.66871825 284.58170582 C-70.72089518 267.31881628 -70.81548797 250.05640761 -70.92583355 232.79380308 C-71.03816153 215.07291102 -71.10472831 197.35227033 -71.12906194 179.63103688 C-71.1455053 168.70098619 -71.19738381 157.77229482 -71.2949976 146.84266271 C-71.35856574 139.34170308 -71.37757111 131.84144328 -71.36201653 124.34023403 C-71.35435019 120.01564919 -71.36586439 115.69343439 -71.4304657 111.36927414 C-71.85642775 81.37682526 -71.85642775 81.37682526 -64.28985596 73.28421021 C-62.77270936 71.87723282 -61.22581467 70.58318348 -59.58649302 69.32138085 C-56.67914363 66.89986637 -54.39221575 63.9154734 -52 61 C-51.00642846 59.8363833 -50.01063319 58.67465828 -49.01171875 57.515625 C-46.96926033 55.1330896 -44.93066618 52.74731625 -42.89453125 50.359375 C-38.42459061 45.12223205 -33.9470481 39.90567526 -29.3125 34.8125 C-25.46393569 30.57561208 -21.85565238 26.17685225 -18.2578125 21.7265625 C-15.33103671 18.1921516 -12.24178056 14.8222348 -9.14453125 11.4375 C-6.38096404 8.29639629 -3.87998561 4.99203707 -1.41015625 1.6171875 C-0.94480469 1.08351563 -0.47945312 0.54984375 0 0 Z " fill="#01725B" transform="translate(799,366)"/>
<path d="M0 0 C49.83 0 99.66 0 151 0 C143 16 143 16 141 19 C139.20297241 19.36076355 139.20297241 19.36076355 137.00927734 19.34057617 C136.18857758 19.34034958 135.36787781 19.34012299 134.52230835 19.33988953 C133.63580597 19.32440567 132.74930359 19.30892181 131.8359375 19.29296875 C130.92872955 19.28872391 130.02152161 19.28447906 129.08682251 19.28010559 C126.18258268 19.26328133 123.2790309 19.2256226 120.375 19.1875 C118.40886417 19.17245799 116.44271749 19.15876875 114.4765625 19.14648438 C109.65077561 19.11336557 104.82550455 19.06155786 100 19 C100.61415771 19.99870117 101.22831543 20.99740234 101.86108398 22.02636719 C102.67717758 23.36637997 103.4929997 24.70655812 104.30859375 26.046875 C104.71219116 26.70155762 105.11578857 27.35624023 105.53161621 28.03076172 C109.46988311 34.52579874 114 42.26558837 114 50 C126.21 50 138.42 50 151 50 C150.34 51.65 149.68 53.3 149 55 C148.62174072 56.00800659 148.62174072 56.00800659 148.23583984 57.03637695 C146.12722712 62.34776911 143.75176217 67.60636086 139 71 C131.22633981 73.02820393 122.8833102 71.9790593 115 71 C114.84760864 72.04969971 114.84760864 72.04969971 114.69213867 73.12060547 C113.691785 79.34279472 112.266832 84.56589436 109.3125 90.125 C108.78076172 91.15173828 108.78076172 91.15173828 108.23828125 92.19921875 C105.36135816 97.613999 102.12342852 102.4449431 98 107 C97.43152344 107.66 96.86304688 108.32 96.27734375 109 C81.97428667 124.54812149 61.91699823 130.47158793 42 135 C42.35602295 135.43119141 42.7120459 135.86238281 43.07885742 136.30664062 C53.75711335 149.24418531 64.40010144 162.20939043 74.85546875 175.328125 C77.09863729 178.12289236 79.3605123 180.90175056 81.62475586 183.67944336 C86.28155995 189.39249927 90.90609633 195.12436843 95.4375 200.9375 C100.1687229 207.00104364 104.99581073 212.98418194 109.95996094 218.85913086 C112.58139815 221.97253545 115.09278423 225.01450136 117.22265625 228.48828125 C120.65248594 233.85871389 120.65248594 233.85871389 126.22949219 236.54443359 C131.83099349 237.29810968 137.36365335 237.24655433 143 237 C143 237.33 143 237.66 143 238 C139.72924117 238.0580476 136.45861476 238.09361165 133.1875 238.125 C132.25873047 238.14175781 131.32996094 238.15851563 130.37304688 238.17578125 C129.48037109 238.18222656 128.58769531 238.18867187 127.66796875 238.1953125 C126.84578857 238.20578613 126.0236084 238.21625977 125.17651367 238.22705078 C123 238 123 238 120 236 C117.31405085 235.82837975 114.73455099 235.76775448 112.05078125 235.8046875 C111.27816452 235.8075174 110.50554779 235.81034729 109.70951843 235.81326294 C107.24368757 235.82445122 104.77822094 235.84955297 102.3125 235.875 C100.63997921 235.88503157 98.96745272 235.89415711 97.29492188 235.90234375 C93.19647441 235.92438608 89.09829894 235.95890637 85 236 C84.34 237.32 83.68 238.64 83 240 C82.34 239.67 81.68 239.34 81 239 C81.66 238.01 82.32 237.02 83 236 C82.50113281 235.3915625 82.00226563 234.783125 81.48828125 234.15625 C74.06324206 225.0915702 66.67857821 215.99426709 59.29296875 206.89746094 C51.41043459 197.18736387 51.41043459 197.18736387 43.5 187.5 C27.41864112 167.85482349 27.41864112 167.85482349 20.375 158.8125 C16.7839998 154.20556039 13.10189613 149.69520276 9.3125 145.25 C5.96332168 141.32065373 2.63237076 137.38139185 -0.625 133.375 C-1.25664062 132.59898437 -1.88828125 131.82296875 -2.5390625 131.0234375 C-5.52726751 126.88469366 -5.11789191 122.69124887 -5.0625 117.8125 C-5.05798828 117.06291016 -5.05347656 116.31332031 -5.04882812 115.54101562 C-5.03706354 113.69397617 -5.01912865 111.84697787 -5 110 C-3.97342285 109.9906543 -2.9468457 109.98130859 -1.88916016 109.97167969 C2.01407279 109.93102761 5.9165778 109.86508644 9.81933594 109.79248047 C11.49078844 109.76469744 13.16236192 109.74327709 14.83398438 109.72900391 C35.58587537 109.54148682 56.99122414 106.39274801 73 92 C78.90253972 85.39529942 80.85103911 79.65964245 84 71 C52.65 71 21.3 71 -11 71 C-7 64 -3 57 1 50 C28.06 50 55.12 50 83 50 C75.51555383 36.27851535 69.90571052 29.54471868 55.21118164 25.16967773 C48.35942481 23.40839827 41.73988145 22.35652318 34.6875 21.875 C33.12721069 21.75825928 33.12721069 21.75825928 31.53540039 21.63916016 C17.71156991 20.67294034 3.85084341 20.33967775 -10 20 C-6.66666667 13.33333333 -3.33333333 6.66666667 0 0 Z " fill="#01554D" transform="translate(227,491)"/>
<path d="M0 0 C0.33 0.66 0.66 1.32 1 2 C0.04860198 4.75063924 -0.97620144 7.39868803 -2.09375 10.08203125 C-2.43171097 10.91081284 -2.76967194 11.73959442 -3.11787415 12.5934906 C-4.23813801 15.33613113 -5.3691352 18.07421551 -6.5 20.8125 C-7.28163711 22.72135475 -8.06247179 24.63053826 -8.8425293 26.54003906 C-10.444045 30.45800751 -12.04934088 34.37439289 -13.65771484 38.28955078 C-16.75622668 45.8365327 -19.82209806 53.39666055 -22.88421631 60.95846558 C-23.81782873 63.26315435 -24.75276853 65.56730094 -25.68798828 67.87133789 C-28.96801425 75.9558503 -32.22177001 84.04995888 -35.44580078 92.15698242 C-46.08134552 118.89482183 -57.22065911 145.42806748 -68.36962891 171.95507812 C-73.96716299 185.28101564 -79.48795481 198.63851387 -85 212 C-87.24763215 208.62855178 -88.37091755 205.24389057 -89.609375 201.4296875 C-89.9833139 200.29794601 -89.9833139 200.29794601 -90.36480713 199.14334106 C-91.16414669 196.72194422 -91.95741373 194.2986149 -92.75 191.875 C-94.56109976 186.35896587 -96.38406026 180.84712075 -98.22445679 175.34078979 C-98.99447793 173.01666703 -99.74422771 170.68662339 -100.4934082 168.35571289 C-103.18662531 160.1459534 -105.99405789 153.34414321 -111.6875 146.6875 C-112.25533203 145.98689453 -112.82316406 145.28628906 -113.40820312 144.56445312 C-114.4485987 143.28255892 -115.49817427 142.00799751 -116.5612793 140.74487305 C-118 139 -118 139 -119.08670044 136.91932678 C-121.5250721 134.47327384 -123.340147 134.52833761 -126.70401001 134.50231934 C-127.47868622 134.51670044 -128.25336243 134.53108154 -129.05151367 134.54589844 C-129.87125168 134.54531433 -130.69098969 134.54473022 -131.53556824 134.54412842 C-134.24679825 134.54691658 -136.95693067 134.57804231 -139.66796875 134.609375 C-141.5469757 134.61683481 -143.42599043 134.62252897 -145.30500793 134.62652588 C-150.25195779 134.64180273 -155.1984383 134.6811022 -160.14520264 134.7253418 C-165.19244029 134.76625029 -170.23975374 134.78452744 -175.28710938 134.8046875 C-185.19161253 134.84759448 -195.09576724 134.91587061 -205 135 C-202.06845386 131.99421078 -199.22817169 129.7008921 -195.66796875 127.4609375 C-194.62962891 126.80311279 -193.59128906 126.14528809 -192.52148438 125.4675293 C-190.87116211 124.43172729 -190.87116211 124.43172729 -189.1875 123.375 C-186.90857404 121.93348075 -184.63204221 120.48819955 -182.35546875 119.04296875 C-181.25638184 118.34606934 -180.15729492 117.64916992 -179.02490234 116.93115234 C-175.31715441 114.56405903 -171.64843755 112.14471481 -168 109.6875 C-162.33613772 105.87932582 -156.62528287 102.1509186 -150.88989258 98.45141602 C-144.80988568 94.52841414 -138.74669415 90.58006259 -132.6875 86.625 C-122.94944716 80.26976601 -113.20311564 73.92741871 -103.45166016 67.59277344 C-99.30060617 64.89595247 -95.15033841 62.19792203 -91 59.5 C-86.03553414 56.27285549 -81.07092925 53.04592646 -76.10546875 49.8203125 C-57.69047037 37.85680219 -39.2975864 25.86010604 -20.9375 13.8125 C-20.23669312 13.35270752 -19.53588623 12.89291504 -18.81384277 12.41918945 C-16.80148868 11.09875583 -14.7893676 9.77796802 -12.77734375 8.45703125 C-12.18136887 8.06594681 -11.58539398 7.67486237 -10.97135925 7.27192688 C-7.30386625 4.86323583 -3.64829229 2.43761101 0 0 Z " fill="#37A946" transform="translate(832,181)"/>
<path d="M0 0 C0.33 0 0.66 0 1 0 C5.8618313 27.16473546 10.71833112 54.33047734 15.52810669 81.50448608 C15.92601098 83.75135654 16.32450947 85.99812185 16.72360229 88.24478149 C17.27834081 91.36862425 17.83089059 94.49284606 18.3828125 97.6171875 C18.54794846 98.54475357 18.71308441 99.47231964 18.88322449 100.42799377 C19.03149185 101.27014938 19.17975922 102.11230499 19.33251953 102.97998047 C19.52710251 104.07897171 19.52710251 104.07897171 19.72561646 105.20016479 C20 107 20 107 20 109 C19.30551758 109.19295654 18.61103516 109.38591309 17.89550781 109.5847168 C1.45963103 114.24848006 1.45963103 114.24848006 -10.28759766 125.84204102 C-12.16729356 129.48991382 -13.91048017 133.18086359 -15.57617188 136.93115234 C-18.18126583 142.54604106 -21.32336918 147.86905664 -24.375 153.25 C-25.65505404 155.54797153 -26.93239429 157.84745681 -28.20703125 160.1484375 C-28.83818848 161.28635742 -29.4693457 162.42427734 -30.11962891 163.59667969 C-31.94776648 166.90546153 -33.76226333 170.22139765 -35.57421875 173.5390625 C-55.06179141 209.0428143 -55.06179141 209.0428143 -64 217 C-62.50290033 212.1305113 -60.52547247 207.6626041 -58.32421875 203.0859375 C-57.78180794 201.94697525 -57.78180794 201.94697525 -57.22843933 200.78500366 C-56.45329213 199.15801582 -55.67664135 197.53174362 -54.89862061 195.90612793 C-52.84807637 191.62068372 -50.80959875 187.32950126 -48.76953125 183.0390625 C-48.15730713 181.75261841 -48.15730713 181.75261841 -47.53271484 180.44018555 C-43.94335521 172.89375121 -40.39469349 165.32914827 -36.875 157.75 C-36.39248779 156.71407715 -35.90997559 155.6781543 -35.4128418 154.61083984 C-34.45461747 152.54421064 -33.50708063 150.47259681 -32.56958008 148.39648438 C-31.43293258 145.93684214 -30.25920851 143.53097023 -29.0300293 141.11914062 C-22.63503684 128.21023067 -20.33987132 115.13604696 -18.0625 101 C-17.64755397 98.53952892 -17.23002936 96.07949145 -16.81005859 93.61987305 C-15.95066474 88.57547927 -15.10206722 83.52945225 -14.26123047 78.48193359 C-12.50034271 67.96649969 -10.6026342 57.47608102 -8.69967651 46.9855957 C-8.14423596 43.91871197 -7.59298308 40.85110785 -7.04321289 37.78320312 C-4.77995695 25.17226685 -2.42214151 12.58136446 0 0 Z " fill="#F9FCFB" transform="translate(499,564)"/>
<path d="M0 0 C0.33 0 0.66 0 1 0 C0.31461123 7.57506027 -0.66165672 15.08981918 -1.73413086 22.61889648 C-1.99287743 24.45263824 -1.99287743 24.45263824 -2.2568512 26.32342529 C-2.72644838 29.64806746 -3.19786264 32.97244135 -3.67025447 36.29668689 C-4.06616482 39.08456548 -4.46075525 41.87263024 -4.85534102 44.66069657 C-5.78708361 51.24418896 -6.72085608 57.82739116 -7.65600586 64.41040039 C-8.61681249 71.1742185 -9.57458242 77.93846149 -10.5307855 84.70293182 C-11.35556147 90.53702935 -12.18204036 96.37088387 -13.00990015 102.2045446 C-13.50269621 105.67714931 -13.99491876 109.14983254 -14.48557854 112.62273979 C-15.03339341 116.49941704 -15.58477608 120.37558244 -16.13647461 124.25170898 C-16.29602631 125.38399429 -16.455578 126.5162796 -16.6199646 127.68287659 C-17.59206371 134.48728197 -18.71713426 141.24721351 -20 148 C-20.33 148 -20.66 148 -21 148 C-21.16491943 147.12005371 -21.32983887 146.24010742 -21.49975586 145.33349609 C-25.50740942 123.98032385 -29.60983924 102.64723496 -33.80249023 81.32958984 C-34.69286895 76.80213166 -35.57909148 72.27387603 -36.46282959 67.74511719 C-36.83222106 65.85740549 -37.20345906 63.97005449 -37.57623291 62.08300781 C-38.14503009 59.20200808 -38.70782633 56.31988978 -39.26953125 53.4375 C-39.44369064 52.56262939 -39.61785004 51.68775879 -39.79728699 50.78637695 C-41.4905134 42.03353965 -41.4905134 42.03353965 -41 39 C-39.44628906 37.29003906 -39.44628906 37.29003906 -37.265625 35.765625 C-36.46890381 35.19537598 -35.67218262 34.62512695 -34.85131836 34.03759766 C-33.9928833 33.44769043 -33.13444824 32.8577832 -32.25 32.25 C-30.50610401 31.01359386 -28.7626145 29.77661418 -27.01953125 28.5390625 C-26.16311035 27.93868164 -25.30668945 27.33830078 -24.42431641 26.71972656 C-21.20059342 24.4329285 -18.06592509 22.03960981 -14.9375 19.625 C-10.23818182 16 -10.23818182 16 -8 16 C-7.73445312 15.29488281 -7.46890625 14.58976563 -7.1953125 13.86328125 C-5.93501033 10.84432214 -4.46042006 8.04814924 -2.875 5.1875 C-2.33617187 4.21167969 -1.79734375 3.23585938 -1.2421875 2.23046875 C-0.83226562 1.49441406 -0.42234375 0.75835938 0 0 Z " fill="#FCFDFD" transform="translate(531,700)"/>
<path d="M0 0 C6.3133096 5.19714436 12.01398064 10.93082123 17.75 16.75 C19.61689356 18.6435544 21.48709898 20.53361939 23.359375 22.421875 C24.17889648 23.25299805 24.99841797 24.08412109 25.84277344 24.94042969 C28.02104056 27.13923185 28.02104056 27.13923185 31 29 C31 29.66 31 30.32 31 31 C29.07481373 32.52591131 27.14736301 33.92487135 25.125 35.3125 C24.51309814 35.74473877 23.90119629 36.17697754 23.27075195 36.62231445 C19.57731765 39.23028256 15.84734433 41.77841148 12.09765625 44.3046875 C10.46075089 45.43202076 8.82402968 46.55962144 7.1875 47.6875 C6.3929541 48.20932861 5.5984082 48.73115723 4.77978516 49.26879883 C0.73489403 51.94441133 0.73489403 51.94441133 -1.72802734 55.95166016 C-2.08773615 58.07943883 -2.08773615 58.07943883 -2 61 C-2.33 61 -2.66 61 -3 61 C-3 59.35 -3 57.7 -3 56 C-3.7528125 56.58265625 -4.505625 57.1653125 -5.28125 57.765625 C-13.50745128 64.11996456 -21.79031001 70.3957335 -30.12695312 76.60449219 C-31.33513414 77.50464374 -32.54224736 78.40623112 -33.74804688 79.30957031 C-35.28670913 80.46128005 -36.83066964 81.60590185 -38.375 82.75 C-39.22835938 83.38421875 -40.08171875 84.0184375 -40.9609375 84.671875 C-43 86 -43 86 -45 86 C-45 86.66 -45 87.32 -45 88 C-48 90 -48 90 -51 90 C-51.66 91.32 -52.32 92.64 -53 94 C-53 89.76086678 -50.6862442 87.26076308 -48.375 83.875 C-41.56838042 73.6348538 -35.68958368 62.91743191 -29.75097656 52.15917969 C-27.0326324 47.25463793 -24.26667256 42.37739097 -21.5 37.5 C-18.01888864 31.35610225 -14.55094403 25.20520701 -11.109375 19.0390625 C-10.78598145 18.45997131 -10.46258789 17.88088013 -10.12939453 17.28424072 C-8.55217735 14.45958272 -6.97684593 11.63390077 -5.40429688 8.80664062 C-4.84291016 7.80052734 -4.28152344 6.79441406 -3.703125 5.7578125 C-3.20458008 4.8620752 -2.70603516 3.96633789 -2.19238281 3.04345703 C-1 1 -1 1 0 0 Z " fill="#01534C" transform="translate(492,685)"/>
<path d="M0 0 C0.99 0.495 0.99 0.495 2 1 C-9.05773975 20.49804887 -20.42807177 39.80315782 -32 59 C-37.02953999 57.51855698 -39.83940169 54.55103256 -43.39453125 50.8984375 C-43.98674973 50.30197418 -44.5789682 49.70551086 -45.18913269 49.0909729 C-47.07077354 47.19259897 -48.94168823 45.28404067 -50.8125 43.375 C-52.08980001 42.08264627 -53.36778747 40.79097161 -54.64648438 39.5 C-57.77234164 36.34114471 -60.88862334 33.1731166 -64 30 C-61.23266284 26.94871068 -58.96373777 25.30563709 -55.10546875 23.88671875 C-54.15792725 23.529729 -53.21038574 23.17273926 -52.23413086 22.80493164 C-51.22874268 22.4361792 -50.22335449 22.06742676 -49.1875 21.6875 C-40.64020613 18.44889504 -32.37209561 14.98428895 -24.13476562 11.02001953 C-19.50388995 8.80732527 -14.84725607 6.6510312 -10.1875 4.5 C-9.21288818 4.04181885 -8.23827637 3.5836377 -7.23413086 3.11157227 C-5.87106812 2.48400024 -5.87106812 2.48400024 -4.48046875 1.84375 C-3.66473389 1.46412109 -2.84899902 1.08449219 -2.00854492 0.69335938 C-1.3457251 0.46455078 -0.68290527 0.23574219 0 0 Z " fill="#39A947" transform="translate(556,655)"/>
<path d="M0 0 C0.66 0 1.32 0 2 0 C2 121.44 2 242.88 2 368 C1.34 368.33 0.68 368.66 0 369 C-0.33 248.88 -0.66 128.76 -1 5 C-1.99 5 -2.98 5 -4 5 C-2.71937515 3.2925002 -1.38232443 1.62626404 0 0 Z " fill="#18745E" transform="translate(799,366)"/>
<path d="M0 0 C58.86131387 0 58.86131387 0 63.6796875 4.60546875 C64.78645833 6.0703125 65.89322917 7.53515625 67 9 C66.67 9.66 66.34 10.32 66 11 C65.59007812 10.50628906 65.18015625 10.01257813 64.7578125 9.50390625 C64.21898437 8.86324219 63.68015625 8.22257812 63.125 7.5625 C62.59132813 6.92441406 62.05765625 6.28632813 61.5078125 5.62890625 C60.0777243 3.89194996 60.0777243 3.89194996 58 3 C39.52 2.67 21.04 2.34 2 2 C2 60.41 2 118.82 2 179 C19.82 179 37.64 179 56 179 C56 152.6 56 126.2 56 99 C56.33 99 56.66 99 57 99 C57 125.73 57 152.46 57 180 C38.19 180 19.38 180 0 180 C0 120.6 0 61.2 0 0 Z " fill="#244E47" transform="translate(274,282)"/>
<path d="M0 0 C2 3 2 3 1.6796875 5.41796875 C0.17793509 10.58662148 -1.4552451 15.3446811 -4.02734375 20.078125 C-5.07771302 22.15355344 -5.81688809 24.23579781 -6.5625 26.4375 C-7.036875 27.613125 -7.51125 28.78875 -8 30 C-8.99 30.33 -9.98 30.66 -11 31 C-11.92583814 33.02376965 -11.92583814 33.02376965 -12.5 35.5 C-12.87125 36.84384766 -12.87125 36.84384766 -13.25 38.21484375 C-13.4975 39.13394531 -13.745 40.05304687 -14 41 C-14.48284924 42.69248718 -14.98164541 44.38054734 -15.5 46.0625 C-15.7165625 46.79597656 -15.933125 47.52945313 -16.15625 48.28515625 C-16.4346875 48.85105469 -16.713125 49.41695312 -17 50 C-18.485 50.495 -18.485 50.495 -20 51 C-21 48 -21 48 -20.15478516 45.72949219 C-19.70409668 44.84422852 -19.2534082 43.95896484 -18.7890625 43.046875 C-18.28987305 42.04519287 -17.79068359 41.04351074 -17.27636719 40.01147461 C-16.73141602 38.93518799 -16.18646484 37.85890137 -15.625 36.75 C-9.68839862 24.75128955 -4.65181475 12.54596581 0 0 Z " fill="#199045" transform="translate(873,644)"/>
<path d="M0 0 C0.66 0.33 1.32 0.66 2 1 C3.75590877 1.11931048 5.51614607 1.17719868 7.27587891 1.20532227 C8.3768692 1.22526749 9.4778595 1.24521271 10.61221313 1.26576233 C11.80494843 1.28247482 12.99768372 1.29918732 14.2265625 1.31640625 C15.44451508 1.33718735 16.66246765 1.35796844 17.91732788 1.37937927 C21.8198262 1.44492584 25.7223935 1.50378355 29.625 1.5625 C32.26563222 1.60568035 34.90625739 1.64929448 37.546875 1.69335938 C44.03117643 1.80061244 50.51554694 1.90236929 57 2 C57 2.66 57 3.32 57 4 C36.87 4 16.74 4 -4 4 C-2.68 2.68 -1.36 1.36 0 0 Z " fill="#29A23D" transform="translate(631,312)"/>
<path d="M0 0 C0.33 0.66 0.66 1.32 1 2 C0.15136719 3.98364258 0.15136719 3.98364258 -1.203125 6.39453125 C-1.68910156 7.26787109 -2.17507813 8.14121094 -2.67578125 9.04101562 C-3.19527344 9.95560547 -3.71476563 10.87019531 -4.25 11.8125 C-4.75402344 12.71548828 -5.25804687 13.61847656 -5.77734375 14.54882812 C-7.66733141 17.92451474 -9.56997086 21.28567679 -11.56542969 24.6003418 C-14.74465252 29.49530961 -14.74465252 29.49530961 -16 35 C-16.61875 35.556875 -17.2375 36.11375 -17.875 36.6875 C-20.53990159 39.58753997 -21.12485711 42.20771415 -22 46 C-21.34 46.33 -20.68 46.66 -20 47 C-20.96885372 48.68496298 -21.96986723 50.35178756 -23 52 C-23.33 52 -23.66 52 -24 52 C-24.04958429 41.9526031 -21.81403819 35.45906876 -16.4375 27.0625 C-15.16102282 24.97943348 -13.88497928 22.89610117 -12.609375 20.8125 C-11.98998047 19.81992187 -11.37058594 18.82734375 -10.73242188 17.8046875 C-8.45115524 14.11145312 -6.30594167 10.35069444 -4.1875 6.5625 C-1.11049724 1.11049724 -1.11049724 1.11049724 0 0 Z " fill="#035E53" transform="translate(555,660)"/>
<path d="M0 0 C1.60615266 4.01538165 0.23201701 7.01406263 -1 11 C-1 11.99 -1 12.98 -1 14 C-1.45715936 15.57556706 -1.96104529 17.13800522 -2.5 18.6875 C-2.7784375 19.49574219 -3.056875 20.30398438 -3.34375 21.13671875 C-3.66859375 22.05904297 -3.66859375 22.05904297 -4 23 C-3.34 23.33 -2.68 23.66 -2 24 C-2.66 24 -3.32 24 -4 24 C-4.66 26.97 -5.32 29.94 -6 33 C-6.66 33 -7.32 33 -8 33 C-8.33 33.66 -8.66 34.32 -9 35 C-8.41699724 27.35618607 -6.62141841 20.35254655 -4.5 13 C-4.17902344 11.85660156 -3.85804687 10.71320313 -3.52734375 9.53515625 C-1.14218231 1.14218231 -1.14218231 1.14218231 0 0 Z " fill="#086B5F" transform="translate(106,381)"/>
<path d="M0 0 C5.91532221 0.96418893 10.75375651 3.63305547 16.0625 6.3125 C17.11566406 6.84069336 18.16882813 7.36888672 19.25390625 7.91308594 C29.47332102 13.11184471 39.28604449 18.9173688 49 25 C48.01 25.33 47.02 25.66 46 26 C44.09765625 25.0390625 44.09765625 25.0390625 42.0625 23.625 C39.33899896 21.74636152 37.2085448 20.74934167 34 20 C33 19 32 18 31 17 C30.34 16.835 29.68 16.67 29 16.5 C27 16 27 16 25.72143555 14.65112305 C23.51292319 12.53281797 21.20168102 11.4325732 18.45703125 10.08203125 C17.38388672 9.55029297 16.31074219 9.01855469 15.20507812 8.47070312 C14.08552734 7.92349609 12.96597656 7.37628906 11.8125 6.8125 C10.68134766 6.25369141 9.55019531 5.69488281 8.38476562 5.11914062 C5.59246321 3.74066222 2.79751362 2.36786344 0 1 C0 0.67 0 0.34 0 0 Z " fill="#075344" transform="translate(686,124)"/>
<path d="M0 0 C0.99 0.99 1.98 1.98 3 3 C-4.92 10.92 -12.84 18.84 -21 27 C-22.43088528 24.13822943 -21.59991697 22.06624227 -21 19 C-20.67 19.66 -20.34 20.32 -20 21 C-14.76384745 16.75475745 -14.76384745 16.75475745 -10 12 C-10 11.34 -10 10.68 -10 10 C-8.36209288 8.95355934 -6.68991979 7.9601817 -5 7 C-1.84905309 5.03104916 -1.84905309 5.03104916 -0.25 1.8125 C-0.1675 1.214375 -0.085 0.61625 0 0 Z " fill="#1A943C" transform="translate(818,797)"/>
<path d="M0 0 C0.99 0.66 1.98 1.32 3 2 C-1.75 6 -1.75 6 -4 6 C-4.20625 6.5775 -4.4125 7.155 -4.625 7.75 C-6.49264734 10.8061502 -9.02381262 12.05636743 -12 14 C-13.01800576 15.31963709 -14.02248365 16.65009646 -15 18 C-15.99 18.33 -16.98 18.66 -18 19 C-19.37195574 20.29355827 -20.71182656 21.62298702 -22 23 C-22.99 22.67 -23.98 22.34 -25 22 C-21.97369862 18.77194519 -18.79070243 15.98874207 -15.3125 13.25 C-9.9953733 9.06026407 -4.98236793 4.57953818 0 0 Z " fill="#1C933D" transform="translate(770,798)"/>
<path d="M0 0 C6.70775541 -0.02542717 13.4154983 -0.04289929 20.12329102 -0.05493164 C22.40356918 -0.05994964 24.68384414 -0.0667655 26.96411133 -0.07543945 C30.24821769 -0.08761607 33.53228137 -0.09325375 36.81640625 -0.09765625 C37.83021866 -0.10281754 38.84403107 -0.10797882 39.88856506 -0.11329651 C45.03859721 -0.11370151 49.92556445 0.10523986 55 1 C55 1.33 55 1.66 55 2 C52.22949974 2.1946838 49.45886998 2.38102792 46.6875 2.5625 C45.90181641 2.61857422 45.11613281 2.67464844 44.30664062 2.73242188 C43.1706543 2.80493164 43.1706543 2.80493164 42.01171875 2.87890625 C41.31522217 2.9260376 40.61872559 2.97316895 39.90112305 3.02172852 C38 3 38 3 35 2 C32.34393699 1.84653047 29.70904905 1.74282102 27.05078125 1.68359375 C25.89185616 1.6524221 25.89185616 1.6524221 24.70951843 1.62062073 C22.2439352 1.55528962 19.77824639 1.49631685 17.3125 1.4375 C15.63996309 1.39429913 13.96743681 1.35068434 12.29492188 1.30664062 C8.1967225 1.1996251 4.09841704 1.09831143 0 1 C0 0.67 0 0.34 0 0 Z " fill="#06483A" transform="translate(490,86)"/>
<path d="M0 0 C0.99 0.33 1.98 0.66 3 1 C3 1.66 3 2.32 3 3 C2.01 3 1.02 3 0 3 C-0.268125 3.56203125 -0.53625 4.1240625 -0.8125 4.703125 C-2.0803979 7.15550646 -3.48972342 9.43927683 -5 11.75 C-5.515625 12.54921875 -6.03125 13.3484375 -6.5625 14.171875 C-7.036875 14.77515625 -7.51125 15.3784375 -8 16 C-8.66 16 -9.32 16 -10 16 C-10 16.99 -10 17.98 -10 19 C-10.66 19.33 -11.32 19.66 -12 20 C-12.33 20.99 -12.66 21.98 -13 23 C-13.66 22.67 -14.32 22.34 -15 22 C-14.40831435 18.96977724 -13.53724783 17.08263372 -11.6015625 14.6875 C-11.12203125 14.08679688 -10.6425 13.48609375 -10.1484375 12.8671875 C-9.64570312 12.25101563 -9.14296875 11.63484375 -8.625 11 C-7.63773605 9.77106206 -6.65074938 8.5419013 -5.6640625 7.3125 C-5.20161133 6.74015625 -4.73916016 6.1678125 -4.26269531 5.578125 C-2.79948495 3.74939496 -1.3870145 1.88709456 0 0 Z " fill="#19913D" transform="translate(825,737)"/>
<path d="M0 0 C1 2 1 2 0.1875 5.5625 C-1 9 -1 9 -3 10 C-2.773125 10.5775 -2.54625 11.155 -2.3125 11.75 C-2 14 -2 14 -3.375 15.9375 C-4.179375 16.9584375 -4.179375 16.9584375 -5 18 C-5.144375 18.804375 -5.28875 19.60875 -5.4375 20.4375 C-6.16066827 23.73193324 -7.79096589 25.50592923 -10 28 C-9.44861752 21.71079362 -7.4034845 16.43202026 -5 10.625 C-4.63132812 9.71105469 -4.26265625 8.79710937 -3.8828125 7.85546875 C-1.15472274 1.15472274 -1.15472274 1.15472274 0 0 Z " fill="#095D4E" transform="translate(119,346)"/>
<path d="M0 0 C0.33 0 0.66 0 1 0 C0.42085333 6.01326751 -0.22337945 12.00892722 -1 18 C-1.61875 17.2265625 -1.61875 17.2265625 -2.25 16.4375 C-2.8275 15.963125 -3.405 15.48875 -4 15 C-6.16299211 15.22757731 -6.16299211 15.22757731 -8 16 C-6.57250019 12.20950293 -4.83763458 8.72877544 -2.875 5.1875 C-2.33617187 4.21167969 -1.79734375 3.23585938 -1.2421875 2.23046875 C-0.83226562 1.49441406 -0.42234375 0.75835938 0 0 Z M-10 16 C-9.01 16.495 -9.01 16.495 -8 17 C-8.99 17.495 -8.99 17.495 -10 18 C-10 17.34 -10 16.68 -10 16 Z " fill="#EFF7F2" transform="translate(531,700)"/>
<path d="M0 0 C0 0.66 0 1.32 0 2 C-9.04698522 4.15662766 -17.69900635 5.55194549 -27 6 C-24.82741557 3.82741557 -24.01437498 3.58165624 -21.11328125 2.9296875 C-20.33919922 2.75566406 -19.56511719 2.58164063 -18.76757812 2.40234375 C-17.55231445 2.14130859 -17.55231445 2.14130859 -16.3125 1.875 C-15.52166016 1.69324219 -14.73082031 1.51148437 -13.91601562 1.32421875 C-9.16752629 0.28119797 -4.8592957 -0.19515244 0 0 Z " fill="#0C5D51" transform="translate(432,93)"/>
<path d="M0 0 C1.16144531 0.11085938 2.32289063 0.22171875 3.51953125 0.3359375 C4.39996094 0.43132813 5.28039062 0.52671875 6.1875 0.625 C6.1875 0.955 6.1875 1.285 6.1875 1.625 C4.5375 1.955 2.8875 2.285 1.1875 2.625 C1.1875 2.955 1.1875 3.285 1.1875 3.625 C-9.3725 3.625 -19.9325 3.625 -30.8125 3.625 C-30.8125 3.295 -30.8125 2.965 -30.8125 2.625 C-29.49894531 2.57601562 -28.18539063 2.52703125 -26.83203125 2.4765625 C-25.09633405 2.40150532 -23.36065797 2.32595877 -21.625 2.25 C-20.76068359 2.2190625 -19.89636719 2.188125 -19.00585938 2.15625 C-12.25419358 1.84582858 -6.76445373 -0.68327815 0 0 Z " fill="#187C5D" transform="translate(526.8125,875.375)"/>
<path d="M0 0 C0.99 0 1.98 0 3 0 C2.27019021 2.46189169 1.5349034 4.92181356 0.7890625 7.37890625 C0.17052414 9.43355596 -0.42010163 11.49661205 -1 13.5625 C-1.33 14.366875 -1.66 15.17125 -2 16 C-2.99 16.33 -3.98 16.66 -5 17 C-5.98052284 14.35258834 -6.05565835 13.17553789 -5.1875 10.4375 C-4 8 -4 8 -2 5 C-1.30686092 3.34416775 -0.63525576 1.67889021 0 0 Z " fill="#189149" transform="translate(909,645)"/>
<path d="M0 0 C0 3.50492555 -0.56962239 5.79867869 -2 9 C-3.64363134 9.72159424 -5.31050386 10.39351421 -7 11 C-7.74276031 12.97080157 -7.74276031 12.97080157 -8 15 C-8.66 15.66 -9.32 16.32 -10 17 C-10.99 17 -11.98 17 -13 17 C-11.2703384 12.79046213 -8.31793255 9.64856424 -5.375 6.25 C-4.859375 5.64800781 -4.34375 5.04601562 -3.8125 4.42578125 C-2.54530865 2.94739134 -1.27314225 1.47326829 0 0 Z " fill="#035746" transform="translate(680,494)"/>
<path d="M0 0 C0.66 0 1.32 0 2 0 C1.36567062 3.16451962 0.26817072 5.51687779 -1.4375 8.25 C-2.08525391 9.30960937 -2.08525391 9.30960937 -2.74609375 10.390625 C-3.15988281 10.92171875 -3.57367188 11.4528125 -4 12 C-4.66 12 -5.32 12 -6 12 C-6.2475 12.680625 -6.495 13.36125 -6.75 14.0625 C-8.24197908 17.56865083 -10.06835511 20.71620368 -12 24 C-12.33 23.34 -12.66 22.68 -13 22 C-12.24316406 20.18408203 -12.24316406 20.18408203 -11.015625 18.0078125 C-10.57476562 17.22019531 -10.13390625 16.43257813 -9.6796875 15.62109375 C-9.20789063 14.79738281 -8.73609375 13.97367187 -8.25 13.125 C-7.79367188 12.30902344 -7.33734375 11.49304688 -6.8671875 10.65234375 C-2.56463548 3.0296143 -2.56463548 3.0296143 0 0 Z " fill="#075B4B" transform="translate(149,287)"/>
<path d="M0 0 C0.66 0 1.32 0 2 0 C1.55722174 4.40718826 -1.15268309 6.38733143 -4.3125 9.25 C-5.27800781 10.14203125 -6.24351562 11.0340625 -7.23828125 11.953125 C-10 14 -10 14 -14 14 C-13.67 13.01 -13.34 12.02 -13 11 C-10.9375 10.3125 -10.9375 10.3125 -9 10 C-9 9.34 -9 8.68 -9 8 C-6.33352718 4.93849417 -3.48475119 3.03277153 0 1 C0 0.67 0 0.34 0 0 Z " fill="#229841" transform="translate(789,826)"/>
<path d="M0 0 C-3.70991692 4.5230494 -9.48102859 5.09676628 -15 6 C-17.54795865 5.96178062 -19.51514718 5.6212132 -22 5 C-18.34769809 2.93565544 -14.46285314 1.88773898 -10.4375 0.8125 C-9.76525391 0.62236328 -9.09300781 0.43222656 -8.40039062 0.23632812 C-5.06224704 -0.66202035 -3.34942122 -1.11647374 0 0 Z " fill="#24944C" transform="translate(621,885)"/>
<path d="M0 0 C3.24019858 1.41711025 5.33720625 3.12208615 7.78515625 5.66015625 C8.48060547 6.37107422 9.17605469 7.08199219 9.89257812 7.81445312 C10.60865234 8.55630859 11.32472656 9.29816406 12.0625 10.0625 C13.48615365 11.53713498 14.91434578 13.00740572 16.34765625 14.47265625 C17.29137085 15.45117554 17.29137085 15.45117554 18.25415039 16.44946289 C20.02487465 18.22691833 20.02487465 18.22691833 23 19 C23.6875 21.0625 23.6875 21.0625 24 23 C20.24815118 20.92158104 17.37637504 18.62296794 14.35546875 15.5859375 C13.51435547 14.74289062 12.67324219 13.89984375 11.80664062 13.03125 C10.94232422 12.1546875 10.07800781 11.278125 9.1875 10.375 C8.30384766 9.49070312 7.42019531 8.60640625 6.50976562 7.6953125 C0 1.14030526 0 1.14030526 0 0 Z " fill="#3FB446" transform="translate(499,691)"/>
<path d="M0 0 C0 0.33 0 0.66 0 1 C-9.70943816 1.83779436 -19.26055028 2.12276617 -29 2 C-29 1.67 -29 1.34 -29 1 C-18.98556995 -1.34157863 -10.1680385 -1.18874772 0 0 Z " fill="#045548" transform="translate(499,121)"/>
<path d="M0 0 C0 3.73838874 -0.88994615 4.32222769 -3.375 7 C-5.48740728 9.294961 -7.26130597 11.39195896 -9 14 C-10.65532623 15.01866229 -12.32260138 16.01810813 -14 17 C-15.75149165 18.58245275 -15.75149165 18.58245275 -17 20 C-17.66 19.67 -18.32 19.34 -19 19 C-12.73 12.73 -6.46 6.46 0 0 Z " fill="#118F35" transform="translate(794,775)"/>
<path d="M0 0 C-0.0625 1.75 -0.0625 1.75 -1 4 C-2.69949954 5.01316318 -4.40578096 6.01873547 -6.16015625 6.93359375 C-8.90353665 8.52370595 -10.85857817 10.68494938 -13 13 C-14.33333333 14.33333333 -15.66666667 15.66666667 -17 17 C-17.66 16.67 -18.32 16.34 -19 16 C-17.10730953 14.08014172 -15.21100983 12.16408963 -13.3125 10.25 C-12.51682617 9.44175781 -12.51682617 9.44175781 -11.70507812 8.6171875 C-3.14043445 0 -3.14043445 0 0 0 Z " fill="#065749" transform="translate(236,186)"/>
<path d="M0 0 C2 4 2 4 1.44848633 6.09057617 C1.08005615 6.81736572 0.71162598 7.54415527 0.33203125 8.29296875 C-0.26641602 9.4850293 -0.26641602 9.4850293 -0.87695312 10.70117188 C-1.30943359 11.52166016 -1.74191406 12.34214844 -2.1875 13.1875 C-2.60064453 14.01958984 -3.01378906 14.85167969 -3.43945312 15.70898438 C-6.59527308 21.86509103 -6.59527308 21.86509103 -10 23 C-9.47692667 19.12925735 -8.69586272 17.69586272 -6 15 C-4.79950593 11.89992799 -4.79950593 11.89992799 -4 9 C-3.34 9 -2.68 9 -2 9 C-1.34 6.03 -0.68 3.06 0 0 Z " fill="#159141" transform="translate(895,681)"/>
<path d="M0 0 C0.33 0.66 0.66 1.32 1 2 C-1 4 -1 4 -3.52197266 4.13525391 C-4.5588623 4.08288574 -5.59575195 4.03051758 -6.6640625 3.9765625 C-7.78554688 3.925 -8.90703125 3.8734375 -10.0625 3.8203125 C-11.238125 3.75585938 -12.41375 3.69140625 -13.625 3.625 C-15.40003906 3.53992188 -15.40003906 3.53992188 -17.2109375 3.453125 C-20.14121112 3.31133757 -23.07066772 3.15989667 -26 3 C-22.08437698 0.81597643 -18.76871944 0.79861806 -14.375 0.9375 C-9.31734806 1.06681496 -4.96001324 -0.13052666 0 0 Z " fill="#319B5A" transform="translate(553,931)"/>
<path d="M0 0 C0 3.41137757 -0.50940156 6.62713572 -1 10 C-1 10.66 -1 11.32 -1 12 C-1 12.99 -1 13.98 -1 15 C-2.65 13.02 -4.3 11.04 -6 9 C-4.68775452 5.06326356 -3.08089673 2.77280706 0 0 Z " fill="#065944" transform="translate(349,684)"/>
<path d="M0 0 C0.66 0.33 1.32 0.66 2 1 C1.4225 1.680625 0.845 2.36125 0.25 3.0625 C-1.47255396 5.31138989 -2.74609752 7.284922 -4.0625 9.75 C-6 13 -6 13 -9 14 C-9 9.0291691 -7.8345788 8.26983318 -4.5 4.75 C-3.6646875 3.85796875 -2.829375 2.9659375 -1.96875 2.046875 C-1.3190625 1.37140625 -0.669375 0.6959375 0 0 Z " fill="#045849" transform="translate(780,389)"/>
<path d="M0 0 C4.6020291 1.40519973 8.80148112 3.2933185 13.0625 5.5 C16.97933018 7.51533351 20.87412928 9.44012449 25 11 C25 11.66 25 12.32 25 13 C19.29676416 11.37317535 14.31986097 8.66802013 9.125 5.875 C8.24585938 5.40707031 7.36671875 4.93914062 6.4609375 4.45703125 C4.30505729 3.3087907 2.15153223 2.15636097 0 1 C0 0.67 0 0.34 0 0 Z " fill="#065343" transform="translate(673,156)"/>
<path d="M0 0 C-1.6396875 0.8971875 -1.6396875 0.8971875 -3.3125 1.8125 C-5.44369643 3.01746217 -7.0095013 4.0095013 -8.75 5.75 C-9.36875 6.36875 -9.36875 6.36875 -10 7 C-10.99 7 -11.98 7 -13 7 C-13 7.66 -13 8.32 -13 9 C-14.65 9 -16.3 9 -18 9 C-15.09073891 5.84314222 -12.19738341 3.74904152 -8.4375 1.6875 C-7.48746094 1.15511719 -6.53742188 0.62273437 -5.55859375 0.07421875 C-3 -1 -3 -1 0 0 Z " fill="#07594C" transform="translate(306,139)"/>
<path d="M0 0 C0.33 0.66 0.66 1.32 1 2 C0.2578125 3.734375 0.2578125 3.734375 -0.875 5.75 C-2.70274673 9.18641423 -3.43433706 12.13463657 -4 16 C-4.66 16.33 -5.32 16.66 -6 17 C-6.65213292 19.02463255 -6.65213292 19.02463255 -7 21 C-7.66 21 -8.32 21 -9 21 C-8.38367054 16.04001528 -6.20164371 12.06328034 -3.9375 7.6875 C-3.37192383 6.57665039 -3.37192383 6.57665039 -2.79492188 5.44335938 C-1.86871843 3.62612478 -0.93509371 1.81267596 0 0 Z " fill="#075848" transform="translate(129,324)"/>
<path d="M0 0 C0.33 0.66 0.66 1.32 1 2 C-1.74277547 3.22766151 -4.49212499 4.432163 -7.25 5.625 C-8.02730469 5.975625 -8.80460938 6.32625 -9.60546875 6.6875 C-10.73662109 7.17089844 -10.73662109 7.17089844 -11.890625 7.6640625 C-12.58188477 7.96779785 -13.27314453 8.2715332 -13.98535156 8.58447266 C-16.61656291 9.12716797 -17.76691433 8.38801599 -20 7 C-19.14277344 6.74605469 -18.28554688 6.49210938 -17.40234375 6.23046875 C-11.44156558 4.43618716 -5.64744678 2.62671943 0 0 Z " fill="#1C923F" transform="translate(672,902)"/>
<path d="M0 0 C0.66 0.99 1.32 1.98 2 3 C-2.14285714 9.42857143 -2.14285714 9.42857143 -5 12 C-5.99 11.67 -6.98 11.34 -8 11 C-5.36 7.37 -2.72 3.74 0 0 Z " fill="#056050" transform="translate(167,260)"/>
<path d="M0 0 C0.33 0.99 0.66 1.98 1 3 C-5.21324498 3.73030908 -10.84098757 4.23180249 -17 3 C-17 2.67 -17 2.34 -17 2 C-15.10507994 1.66151348 -13.20901534 1.32943089 -11.3125 1 C-9.72888672 0.7215625 -9.72888672 0.7215625 -8.11328125 0.4375 C-5.35095938 0.04931926 -2.78257957 -0.08259976 0 0 Z " fill="#2A9751" transform="translate(575,929)"/>
<path d="M0 0 C0 0.66 0 1.32 0 2 C-1.93455454 2.38991022 -3.87281828 2.76145349 -5.8125 3.125 C-6.89144531 3.33382812 -7.97039063 3.54265625 -9.08203125 3.7578125 C-12 4 -12 4 -15 2 C-9.68670645 -0.08989546 -5.71271928 -1.6112798 0 0 Z " fill="#24954A" transform="translate(597,926)"/>
<path d="M0 0 C1.09054687 0.38285156 2.18109375 0.76570312 3.3046875 1.16015625 C4.94824219 1.73056641 4.94824219 1.73056641 6.625 2.3125 C7.46804688 2.61285156 8.31109375 2.91320312 9.1796875 3.22265625 C9.1796875 4.21265625 9.1796875 5.20265625 9.1796875 6.22265625 C3.49921806 5.28209922 -0.54455562 4.36048549 -4.8203125 0.22265625 C-2.8203125 -0.77734375 -2.8203125 -0.77734375 0 0 Z " fill="#178352" transform="translate(372.8203125,872.77734375)"/>
<path d="M0 0 C0.77923828 0.00451172 1.55847656 0.00902344 2.36132812 0.01367188 C4.26175268 0.02533092 6.16213706 0.04326123 8.0625 0.0625 C8.0625 0.3925 8.0625 0.7225 8.0625 1.0625 C6.90621094 1.15337891 6.90621094 1.15337891 5.7265625 1.24609375 C4.22222656 1.37177734 4.22222656 1.37177734 2.6875 1.5 C1.19089844 1.62181641 1.19089844 1.62181641 -0.3359375 1.74609375 C-2.91677613 1.91215626 -2.91677613 1.91215626 -4.9375 3.0625 C-6.81612875 2.97505632 -8.69205181 2.82074458 -10.5625 2.625 C-11.56539063 2.52316406 -12.56828125 2.42132813 -13.6015625 2.31640625 C-14.37242187 2.23261719 -15.14328125 2.14882812 -15.9375 2.0625 C-15.9375 1.7325 -15.9375 1.4025 -15.9375 1.0625 C-10.57260405 0.15766363 -5.43432543 -0.06053662 0 0 Z " fill="#024F40" transform="translate(476.9375,86.9375)"/>
<path d="M0 0 C0.66 0.33 1.32 0.66 2 1 C1.09515208 2.15518918 0.1755794 3.29885406 -0.75 4.4375 C-1.26046875 5.07558594 -1.7709375 5.71367187 -2.296875 6.37109375 C-4.22291029 8.21319631 -5.43310169 8.4950364 -8 9 C-9.73026102 10.47890069 -9.73026102 10.47890069 -11 12 C-11.66 11.67 -12.32 11.34 -13 11 C-11.39801112 9.53927468 -9.79332884 8.08150284 -8.1875 6.625 C-7.29417969 5.81289062 -6.40085938 5.00078125 -5.48046875 4.1640625 C-3 2 -3 2 0 0 Z " fill="#065649" transform="translate(250,173)"/>
<path d="M0 0 C1.32 0.99 2.64 1.98 4 3 C3.67 3.66 3.34 4.32 3 5 C2.236875 5.20625 1.47375 5.4125 0.6875 5.625 C-3.30491264 7.66762972 -4.32707793 10.98124867 -6 15 C-7 12 -7 12 -5.56640625 9.08203125 C-4.90511719 8.00308594 -4.24382812 6.92414062 -3.5625 5.8125 C-2.90378906 4.72582031 -2.24507813 3.63914062 -1.56640625 2.51953125 C-1.04949219 1.68808594 -0.53257812 0.85664062 0 0 Z " fill="#053F39" transform="translate(492,685)"/>
<path d="M0 0 C1.97388164 1.89163657 2.92417941 3.40112726 3.26953125 6.12890625 C3.34645366 10.37362475 3.1373045 13.25333077 1 17 C-0.78126089 15.21873911 -0.42034316 12.60537435 -0.625 10.1875 C-0.72039062 9.12917969 -0.81578125 8.07085938 -0.9140625 6.98046875 C-0.98971418 4.35673078 -0.80235938 2.47294346 0 0 Z " fill="#0D7567" transform="translate(121,521)"/>
<path d="M0 0 C1.51039779 3.91548982 0.44100338 6.66910965 -0.8125 10.5625 C-1.16957031 11.69816406 -1.52664062 12.83382813 -1.89453125 14.00390625 C-3 17 -3 17 -5 20 C-3.68421053 3.68421053 -3.68421053 3.68421053 0 0 Z " fill="#0C5B4B" transform="translate(106,381)"/>
<path d="M0 0 C0.91007812 0.10183594 1.82015625 0.20367187 2.7578125 0.30859375 C3.45648438 0.39238281 4.15515625 0.47617188 4.875 0.5625 C-1.33481949 4.03183577 -9.09232541 4.94264457 -16.125 4.5625 C-12.99001708 2.70473235 -10.75028568 2.36109524 -7.125 2.5625 C-7.125 1.9025 -7.125 1.2425 -7.125 0.5625 C-4.50184968 -0.74907516 -2.89466564 -0.33399988 0 0 Z " fill="#045343" transform="translate(447.125,124.4375)"/>
<path d="M0 0 C0.55171875 0.36867188 1.1034375 0.73734375 1.671875 1.1171875 C-0.0296875 1.7978125 -0.0296875 1.7978125 -1.765625 2.4921875 C-5.37534192 3.68814556 -5.37534192 3.68814556 -6.328125 6.1171875 C-9.19537186 5.54373813 -10.1895765 5.255736 -12.328125 3.1171875 C-10.7533956 2.38992698 -9.16788221 1.68598328 -7.578125 0.9921875 C-6.69640625 0.59773437 -5.8146875 0.20328125 -4.90625 -0.203125 C-2.328125 -0.8828125 -2.328125 -0.8828125 0 0 Z " fill="#249649" transform="translate(657.328125,871.8828125)"/>
<path d="M0 0 C-2.58090767 1.31746333 -5.16450458 2.62909617 -7.75 3.9375 C-8.47960937 4.31068359 -9.20921875 4.68386719 -9.9609375 5.06835938 C-10.66992188 5.42607422 -11.37890625 5.78378906 -12.109375 6.15234375 C-13.08342285 6.6472229 -13.08342285 6.6472229 -14.07714844 7.15209961 C-16.03293079 8.01452116 -17.91540694 8.54374179 -20 9 C-19.67 8.01 -19.34 7.02 -19 6 C-17.0187415 5.27954236 -15.01495907 4.61998741 -13 4 C-12.175 3.505 -11.35 3.01 -10.5 2.5 C-3.45454545 -1.72727273 -3.45454545 -1.72727273 0 0 Z " fill="#045F53" transform="translate(539,663)"/>
<path d="M0 0 C0.66 0.33 1.32 0.66 2 1 C1.67 1.99 1.34 2.98 1 4 C0.34 4 -0.32 4 -1 4 C-1.2475 4.61875 -1.495 5.2375 -1.75 5.875 C-3.24624309 8.41861325 -4.31072677 8.8926522 -7 10 C-8.33625722 10.66078654 -9.67002225 11.32666398 -11 12 C-7.49102731 7.81576108 -3.91939465 3.80411834 0 0 Z " fill="#025648" transform="translate(208,211)"/>
<path d="M0 0 C0 0.99 0 1.98 0 3 C-2.6648549 4.33242745 -4.14783412 3.58505967 -7 3 C-7.33 3.33 -7.66 3.66 -8 4 C-9.99958364 4.04080783 -12.00045254 4.04254356 -14 4 C-12 1 -12 1 -8.6875 0.3125 C-5.75903238 0.06432478 -2.9340986 -0.08891208 0 0 Z " fill="#2D9A56" transform="translate(565,896)"/>
<path d="M0 0 C0 3.15987325 -0.38214873 4.36034793 -2 7 C-2.99 7.66 -3.98 8.32 -5 9 C-5.33 9.99 -5.66 10.98 -6 12 C-8.0625 12.6875 -8.0625 12.6875 -10 13 C-7.37288552 8.05484333 -3.73354706 4.12224511 0 0 Z " fill="#075945" transform="translate(410,610)"/>
<path d="M0 0 C0.66 0.99 1.32 1.98 2 3 C0.1875 5.5 0.1875 5.5 -2 8 C-2.99 8 -3.98 8 -5 8 C-5.66 9.32 -6.32 10.64 -7 12 C-7.99 12 -8.98 12 -10 12 C-9.36191406 11.30132812 -8.72382812 10.60265625 -8.06640625 9.8828125 C-7.24011719 8.97273438 -6.41382813 8.06265625 -5.5625 7.125 C-4.73878906 6.22007812 -3.91507813 5.31515625 -3.06640625 4.3828125 C-0.99092058 2.18862073 -0.99092058 2.18862073 0 0 Z " fill="#0A4D44" transform="translate(637,374)"/>
<path d="M0 0 C0.99 0.33 1.98 0.66 3 1 C1.625 3 1.625 3 0 5 C-0.66 5 -1.32 5 -2 5 C-2.2475 5.763125 -2.495 6.52625 -2.75 7.3125 C-4.10995558 10.2364045 -5.31585826 11.30004356 -8 13 C-6.13867992 7.98875364 -4.00722566 3.62558512 0 0 Z " fill="#1C9444" transform="translate(846,706)"/>
<path d="M0 0 C0.66 0 1.32 0 2 0 C2.6708712 1.6232687 3.33657029 3.24867578 4 4.875 C4.556875 6.23238281 4.556875 6.23238281 5.125 7.6171875 C6 10 6 10 6 12 C6.99 12.33 7.98 12.66 9 13 C9 14.32 9 15.64 9 17 C8.34 17 7.68 17 7 17 C5.82866942 14.54379149 4.66278278 12.08525083 3.5 9.625 C3.16613281 8.92632813 2.83226563 8.22765625 2.48828125 7.5078125 C0 2.2265625 0 2.2265625 0 0 Z " fill="#06614A" transform="translate(119,672)"/>
<path d="M0 0 C3.70031458 4.93375278 3.46799924 6.10320955 3 12 C1 15 1 15 -1 17 C-0.67 11.39 -0.34 5.78 0 0 Z " fill="#1B9462" transform="translate(930,531)"/>
<path d="M0 0 C6.6820859 0.8182146 12.80072584 2.3700049 19 5 C14.83326479 6.79341438 11.25336659 5.01173384 7.25 3.5625 C6.20392578 3.19801758 6.20392578 3.19801758 5.13671875 2.82617188 C3.42114902 2.22689752 1.71010285 1.61470115 0 1 C0 0.67 0 0.34 0 0 Z " fill="#0B5547" transform="translate(615,135)"/>
<path d="M0 0 C0.66 0 1.32 0 2 0 C2.20190089 6.35987804 1.6277833 11.85221129 0 18 C-0.33 18 -0.66 18 -1 18 C-1.02707139 15.75006641 -1.04642829 13.50003905 -1.0625 11.25 C-1.07410156 9.99703125 -1.08570313 8.7440625 -1.09765625 7.453125 C-1.02021027 4.71463499 -0.82780815 2.58119707 0 0 Z " fill="#0B8542" transform="translate(927,569)"/>
<path d="M0 0 C3.1875 -0.3125 3.1875 -0.3125 6 0 C2.90347804 3.27346607 0.04980088 5.97509956 -4 8 C-4.99 8 -5.98 8 -7 8 C-7 7.34 -7 6.68 -7 6 C-6.401875 5.938125 -5.80375 5.87625 -5.1875 5.8125 C-2.72953419 5.17394069 -2.72953419 5.17394069 -1.625 2.4375 C-1.08875 1.633125 -0.5525 0.82875 0 0 Z " fill="#075E4F" transform="translate(289,186)"/>
<path d="M0 0 C1 2 1 2 -0.14453125 5.44140625 C-0.692384 6.81836948 -1.24876059 8.19196424 -1.8125 9.5625 C-2.08642578 10.26052734 -2.36035156 10.95855469 -2.64257812 11.67773438 C-4.74332257 16.87166128 -4.74332257 16.87166128 -7 18 C-6.54636829 16.41531323 -6.08688548 14.83230076 -5.625 13.25 C-5.36976563 12.36828125 -5.11453125 11.4865625 -4.8515625 10.578125 C-4.0790066 8.23919428 -3.16374324 6.16557438 -2 4 C-2.66 3.67 -3.32 3.34 -4 3 C-2.68 2.01 -1.36 1.02 0 0 Z " fill="#1C982B" transform="translate(832,181)"/>
<path d="M0 0 C0 1.98 0 3.96 0 6 C-3.28976808 7.09658936 -4.71303767 6.79953138 -8 6 C-2.15384615 0 -2.15384615 0 0 0 Z " fill="#066053" transform="translate(279,153)"/>
<path d="M0 0 C2 2 2 2 2.1953125 3.9453125 C2.13020833 5.96354167 2.06510417 7.98177083 2 10 C1.67 10 1.34 10 1 10 C0.67 12.64 0.34 15.28 0 18 C-0.33 18 -0.66 18 -1 18 C-1.02690844 15.37493198 -1.04679404 12.75013827 -1.0625 10.125 C-1.07087891 9.37863281 -1.07925781 8.63226563 -1.08789062 7.86328125 C-1.11328125 2.2265625 -1.11328125 2.2265625 0 0 Z " fill="#0C7365" transform="translate(122,482)"/>
<path d="M0 0 C0 0.99 0 1.98 0 3 C-0.5775 3.2475 -1.155 3.495 -1.75 3.75 C-4.3002997 5.16683317 -6.01785701 6.87627537 -8 9 C-8.99 8.67 -9.98 8.34 -11 8 C-7.85214347 4.5823272 -5.41881673 2.47293891 -1 1 C-0.67 0.67 -0.34 0.34 0 0 Z " fill="#269A47" transform="translate(756,812)"/>
<path d="M0 0 C0.66 0.33 1.32 0.66 2 1 C-0.97 5.95 -0.97 5.95 -4 11 C-4.66 10.34 -5.32 9.68 -6 9 C-6 8.01 -6 7.02 -6 6 C-5.34 6 -4.68 6 -4 6 C-3.67 4.35 -3.34 2.7 -3 1 C-2.01 0.67 -1.02 0.34 0 0 Z " fill="#1D9646" transform="translate(875,723)"/>
<path d="M0 0 C0.33 0 0.66 0 1 0 C0.67 3.3 0.34 6.6 0 10 C-1.65 10.33 -3.3 10.66 -5 11 C-3.55049545 7.2089881 -1.84827434 3.6125362 0 0 Z " fill="#E3F1E9" transform="translate(531,700)"/>
<path d="M0 0 C0.33 0.99 0.66 1.98 1 3 C-0.2065625 3.4021875 -0.2065625 3.4021875 -1.4375 3.8125 C-2.283125 4.204375 -3.12875 4.59625 -4 5 C-4.33 5.99 -4.66 6.98 -5 8 C-6.32 7.67 -7.64 7.34 -9 7 C-6.03 4.69 -3.06 2.38 0 0 Z " fill="#085C4F" transform="translate(262,164)"/>
<path d="M0 0 C0.33 0.66 0.66 1.32 1 2 C1.66 2 2.32 2 3 2 C3 2.66 3 3.32 3 4 C0 6 0 6 -3 6 C-3.66 7.32 -4.32 8.64 -5 10 C-5 6.60406522 -4.47834052 5.93380119 -2.5 3.3125 C-2.0359375 2.68988281 -1.571875 2.06726563 -1.09375 1.42578125 C-0.7328125 0.95527344 -0.371875 0.48476563 0 0 Z " fill="#07463A" transform="translate(444,769)"/>
<path d="M0 0 C0.66 0 1.32 0 2 0 C0.44298069 4.67105792 -2.08447373 8.08705685 -5 12 C-5.33 11.34 -5.66 10.68 -6 10 C-5.0390625 7.87109375 -5.0390625 7.87109375 -3.625 5.4375 C-3.16351563 4.63183594 -2.70203125 3.82617188 -2.2265625 2.99609375 C-1 1 -1 1 0 0 Z " fill="#E9F5F1" transform="translate(441,769)"/>
<path d="M0 0 C0.33 0.66 0.66 1.32 1 2 C-0.07674702 4.28258633 -1.19546116 6.4356434 -2.4375 8.625 C-2.77587891 9.23601562 -3.11425781 9.84703125 -3.46289062 10.4765625 C-4.30146192 11.988353 -5.14982577 13.49470399 -6 15 C-6.33 14.34 -6.66 13.68 -7 13 C-6.03685937 10.98199105 -5.03041427 8.98450156 -4 7 C-3.649375 5.906875 -3.29875 4.81375 -2.9375 3.6875 C-2 1 -2 1 0 0 Z " fill="#015644" transform="translate(166,329)"/>
<path d="M0 0 C0 0.66 0 1.32 0 2 C-0.99 2.33 -1.98 2.66 -3 3 C-3.33 3.99 -3.66 4.98 -4 6 C-4.99 5.67 -5.98 5.34 -7 5 C-9.14255793 5.38932856 -9.14255793 5.38932856 -11 6 C-5.15384615 0 -5.15384615 0 0 0 Z " fill="#2CA13A" transform="translate(830,185)"/>
<path d="M0 0 C1.98 0 3.96 0 6 0 C6.33 0.99 6.66 1.98 7 3 C8.175625 3.185625 8.175625 3.185625 9.375 3.375 C12 4 12 4 14 6 C8.65155992 5.46515599 4.64203897 3.53309233 0 1 C0 0.67 0 0.34 0 0 Z " fill="#0E5C4E" transform="translate(649,146)"/>
<path d="M0 0 C0.66 0.66 1.32 1.32 2 2 C1.67 2.66 1.34 3.32 1 4 C0.34 4 -0.32 4 -1 4 C-1 4.66 -1 5.32 -1 6 C-2.32 5.34 -3.64 4.68 -5 4 C-4.360625 3.71125 -3.72125 3.4225 -3.0625 3.125 C-0.84793921 2.17176549 -0.84793921 2.17176549 0 0 Z M-7 5 C-5 6 -5 6 -5 6 Z M-9 6 C-8.34 6.33 -7.68 6.66 -7 7 C-7.99 7.33 -8.98 7.66 -10 8 C-10.33 8.66 -10.66 9.32 -11 10 C-11.66 9.34 -12.32 8.68 -13 8 C-11.125 6.9375 -11.125 6.9375 -9 6 Z " fill="#2B9F52" transform="translate(688,856)"/>
<path d="M0 0 C0.66 1.32 1.32 2.64 2 4 C-1.25978366 6.22257977 -4.44774296 8.28564986 -8 10 C-7.04367001 8.70684939 -6.08486149 7.41553147 -5.125 6.125 C-4.59132813 5.40570312 -4.05765625 4.68640625 -3.5078125 3.9453125 C-2 2 -2 2 0 0 Z " fill="#055945" transform="translate(358,673)"/>
<path d="M0 0 C0.66 0.33 1.32 0.66 2 1 C0.7260411 3.03833424 -0.61061923 5.03852126 -2 7 C-2.66 7 -3.32 7 -4 7 C-4 7.66 -4 8.32 -4 9 C-4.99 8.67 -5.98 8.34 -7 8 C-4.69 5.36 -2.38 2.72 0 0 Z " fill="#055A49" transform="translate(665,512)"/>
<path d="M0 0 C5.4185766 -0.22577402 9.77487721 0.53329887 15 2 C13.125 3.0625 13.125 3.0625 11 4 C10.34 3.67 9.68 3.34 9 3 C7.46331135 2.77532169 5.92031946 2.59203195 4.375 2.4375 C3.55773437 2.35371094 2.74046875 2.26992187 1.8984375 2.18359375 C1.27195312 2.12300781 0.64546875 2.06242187 0 2 C0 1.34 0 0.68 0 0 Z " fill="#055347" transform="translate(586,93)"/>
<path d="M0 0 C0.93065133 2.60582371 1.14917407 3.64198224 0.0625 6.25 C-0.4634375 7.11625 -0.4634375 7.11625 -1 8 C-1.66 8 -2.32 8 -3 8 C-3 8.99 -3 9.98 -3 11 C-3.66 11 -4.32 11 -5 11 C-3.77472971 6.94718288 -2.30119506 3.55639236 0 0 Z " fill="#045B4B" transform="translate(135,312)"/>
<path d="M0 0 C0.33 0 0.66 0 1 0 C1 1.98 1 3.96 1 6 C-0.98 6.99 -2.96 7.98 -5 9 C-3.75471468 5.55151758 -2.38532951 2.80016942 0 0 Z " fill="#086151" transform="translate(158,273)"/>
<path d="M0 0 C5.08938811 1.59043379 8.87456643 4.7446951 13 8 C8.99113032 8 7.28126636 6.20983245 4 4 C1.77397385 3.23060319 1.77397385 3.23060319 0 3 C0 2.01 0 1.02 0 0 Z " fill="#0E6E47" transform="translate(281,824)"/>
<path d="M0 0 C0.66 0 1.32 0 2 0 C1.67 2.31 1.34 4.62 1 7 C1.66 7.33 2.32 7.66 3 8 C2.03114628 9.68496298 1.03013277 11.35178756 0 13 C-0.33 13 -0.66 13 -1 13 C-0.67 8.71 -0.34 4.42 0 0 Z " fill="#045540" transform="translate(532,699)"/>
<path d="M0 0 C0 2.67884659 -0.11409459 4.50335747 -1 7 C-1.99 7.66 -2.98 8.32 -4 9 C-4.99 8.67 -5.98 8.34 -7 8 C-4.69 5.36 -2.38 2.72 0 0 Z " fill="#085C4D" transform="translate(184,238)"/>
<path d="M0 0 C-1.6188996 1.03048037 -3.24532489 2.04914678 -4.875 3.0625 C-5.77992188 3.63097656 -6.68484375 4.19945312 -7.6171875 4.78515625 C-8.40351563 5.18605469 -9.18984375 5.58695313 -10 6 C-10.66 5.67 -11.32 5.34 -12 5 C-8.98541648 1.5216344 -4.71726343 -2.35863172 0 0 Z " fill="#07594B" transform="translate(323,170)"/>
<path d="M0 0 C0.66 0.66 1.32 1.32 2 2 C4.06874034 2.6425235 4.06874034 2.6425235 6 3 C4.375 4.5625 4.375 4.5625 2 6 C-1.25 5.6875 -1.25 5.6875 -4 5 C-3.34 4.67 -2.68 4.34 -2 4 C-0.86649466 1.98330173 -0.86649466 1.98330173 0 0 Z " fill="#2E9C54" transform="translate(634,912)"/>
<path d="M0 0 C0 0.99 0 1.98 0 3 C-0.66 3 -1.32 3 -2 3 C-2 3.99 -2 4.98 -2 6 C-2.99 6.495 -2.99 6.495 -4 7 C-4.33 7.99 -4.66 8.98 -5 10 C-5.66 9.67 -6.32 9.34 -7 9 C-6.4568634 5.19804378 -4.84334437 3.49869657 -2 1 C-1.34 0.67 -0.68 0.34 0 0 Z " fill="#239649" transform="translate(817,750)"/>
<path d="M0 0 C0.33 0 0.66 0 1 0 C0.03644647 10.55808656 0.03644647 10.55808656 -1 15 C-1.33 15 -1.66 15 -2 15 C-2.66 12.36 -3.32 9.72 -4 7 C-3.01 7.33 -2.02 7.66 -1 8 C-0.67 5.36 -0.34 2.72 0 0 Z " fill="#025E44" transform="translate(486,630)"/>
<path d="M0 0 C0.33 1.32 0.66 2.64 1 4 C-1.89675481 6.41396234 -4.59787701 8.38617243 -8 10 C-7.04367001 8.70684939 -6.08486149 7.41553147 -5.125 6.125 C-4.59132813 5.40570312 -4.05765625 4.68640625 -3.5078125 3.9453125 C-2 2 -2 2 0 0 Z " fill="#045644" transform="translate(443,570)"/>
<path d="M0 0 C0 3.19633438 -0.33810135 4.34096216 -2 7 C-4.125 8.75 -4.125 8.75 -6 10 C-6.66 9.67 -7.32 9.34 -8 9 C-5.36 6.03 -2.72 3.06 0 0 Z " fill="#075242" transform="translate(639,542)"/>
<path d="M0 0 C2.13586678 3.20380017 2.23132175 4.01939967 2.125 7.6875 C2.10695313 8.49574219 2.08890625 9.30398438 2.0703125 10.13671875 C2.04710938 10.75160156 2.02390625 11.36648438 2 12 C1.01 11.34 0.02 10.68 -1 10 C-1.328125 7.87109375 -1.328125 7.87109375 -1.25 5.4375 C-1.23453125 4.63183594 -1.2190625 3.82617188 -1.203125 2.99609375 C-1 1 -1 1 0 0 Z " fill="#0F7263" transform="translate(88,532)"/>
<path d="M0 0 C0 3.46877176 -0.61849799 5.82254537 -2 9 C-4.125 9.875 -4.125 9.875 -6 10 C-3 2.42857143 -3 2.42857143 0 0 Z " fill="#086151" transform="translate(680,494)"/>
<path d="M0 0 C0.66 0 1.32 0 2 0 C2.33 0.99 2.66 1.98 3 3 C2.01 3.33 1.02 3.66 0 4 C-0.33 6.97 -0.66 9.94 -1 13 C-1.33 13 -1.66 13 -2 13 C-1.85915204 11.20793453 -1.71216299 9.41635083 -1.5625 7.625 C-1.48128906 6.62726563 -1.40007812 5.62953125 -1.31640625 4.6015625 C-1 2 -1 2 0 0 Z " fill="#095C4A" transform="translate(96,418)"/>
<path d="M0 0 C1.61949011 2.57213134 2.04408751 3.67669159 1.625 6.75 C1.41875 7.4925 1.2125 8.235 1 9 C0.34 9 -0.32 9 -1 9 C-1.33 9.66 -1.66 10.32 -2 11 C-1.85892253 9.54119891 -1.71197585 8.08296449 -1.5625 6.625 C-1.48128906 5.81289063 -1.40007812 5.00078125 -1.31640625 4.1640625 C-1 2 -1 2 0 0 Z " fill="#0B604F" transform="translate(99,405)"/>
<path d="M0 0 C-0.92786789 1.00894372 -1.86768433 2.00690907 -2.8125 3 C-3.59560547 3.8353125 -3.59560547 3.8353125 -4.39453125 4.6875 C-6 6 -6 6 -9 6 C-8 3 -8 3 -6 0 C-3.39677846 -0.97620808 -2.52782417 -1.26391209 0 0 Z " fill="#0B6051" transform="translate(257,216)"/>
<path d="M0 0 C1.60332791 -0.08121924 3.20784026 -0.13929134 4.8125 -0.1875 C6.15248047 -0.23970703 6.15248047 -0.23970703 7.51953125 -0.29296875 C10.41647515 0.04918998 11.22555028 0.75393573 13 3 C11.39504433 2.88557539 9.79101881 2.75805306 8.1875 2.625 C7.29417969 2.55539063 6.40085937 2.48578125 5.48046875 2.4140625 C3 2 3 2 0 0 Z " fill="#085547" transform="translate(585,128)"/>
<path d="M0 0 C5.12583611 -0.10251672 9.94997778 -0.03590199 15 1 C14.34 1.66 13.68 2.32 13 3 C9.75 2.6875 9.75 2.6875 6 2 C4.865625 1.814375 3.73125 1.62875 2.5625 1.4375 C1.716875 1.293125 0.87125 1.14875 0 1 C0 0.67 0 0.34 0 0 Z " fill="#014F41" transform="translate(558,89)"/>
<path d="M0 0 C-0.33 0.66 -0.66 1.32 -1 2 C-3.97 1.67 -6.94 1.34 -10 1 C-6.37535939 -2.62464061 -4.33962722 -1.99388278 0 0 Z " fill="#278E55" transform="translate(447,929)"/>
<path d="M0 0 C0.99 0.66 1.98 1.32 3 2 C1.71475739 2.86380259 0.42157581 3.71580369 -0.875 4.5625 C-1.59429688 5.03816406 -2.31359375 5.51382813 -3.0546875 6.00390625 C-3.69664062 6.33261719 -4.33859375 6.66132812 -5 7 C-5.66 6.67 -6.32 6.34 -7 6 C-4.74259377 3.66475218 -2.7194239 1.81294927 0 0 Z " fill="#219744" transform="translate(707,845)"/>
<path d="M0 0 C0.66 0.66 1.32 1.32 2 2 C-0.35277269 4.72426311 -2.62496331 5.8141763 -6 7 C-6 6.01 -6 5.02 -6 4 C-3 1.8125 -3 1.8125 0 0 Z " fill="#249947" transform="translate(727,832)"/>
<path d="M0 0 C0.33 0.66 0.66 1.32 1 2 C0.19152271 3.16945792 -0.62189112 4.33550461 -1.4375 5.5 C-1.88996094 6.1496875 -2.34242188 6.799375 -2.80859375 7.46875 C-3.20175781 7.9740625 -3.59492188 8.479375 -4 9 C-4.33 9 -4.66 9 -5 9 C-5 7.35 -5 5.7 -5 4 C-4.34 4 -3.68 4 -3 4 C-2.67 3.01 -2.34 2.02 -2 1 C-1.34 0.67 -0.68 0.34 0 0 Z " fill="#065E4F" transform="translate(197,279)"/>
<path d="M0 0 C2.375 -0.125 2.375 -0.125 5 0 C7 2 7 2 7 5 C4.69 4.34 2.38 3.68 0 3 C0 2.01 0 1.02 0 0 Z " fill="#1A8453" transform="translate(357,904)"/>
<path d="M0 0 C0.99 1.32 1.98 2.64 3 4 C2.34 5.32 1.68 6.64 1 8 C0.34 8 -0.32 8 -1 8 C-0.67 5.36 -0.34 2.72 0 0 Z M3 0 C3.66 0.66 4.32 1.32 5 2 C4.01 2.495 4.01 2.495 3 3 C3 2.01 3 1.02 3 0 Z " fill="#1B9155" transform="translate(889,587)"/>
<path d="M0 0 C1.11375 0.3403125 1.11375 0.3403125 2.25 0.6875 C1.26 1.1825 1.26 1.1825 0.25 1.6875 C0.25 2.3475 0.25 3.0075 0.25 3.6875 C-2.06 3.3575 -4.37 3.0275 -6.75 2.6875 C-4.29511132 0.41445492 -3.41240272 -0.38777304 0 0 Z " fill="#258E51" transform="translate(458.75,929.3125)"/>
<path d="M0 0 C1.3921875 0.0928125 1.3921875 0.0928125 2.8125 0.1875 C2.8125 1.1775 2.8125 2.1675 2.8125 3.1875 C-0.1575 3.1875 -3.1275 3.1875 -6.1875 3.1875 C-3.1875 0.1875 -3.1875 0.1875 0 0 Z " fill="#2C9A57" transform="translate(546.1875,897.8125)"/>
<path d="M0 0 C-1.27596315 2.55192629 -2.37156116 2.99500868 -5 4 C-5.99 3.67 -6.98 3.34 -8 3 C-8 2.34 -8 1.68 -8 1 C-3.375 -1.125 -3.375 -1.125 0 0 Z " fill="#29984F" transform="translate(645,877)"/>
<path d="M0 0 C0.75 1.625 0.75 1.625 1 4 C-0.9375 7.25 -0.9375 7.25 -3 10 C-4 8 -4 8 -3.1875 4.4375 C-2 1 -2 1 0 0 Z " fill="#1B9443" transform="translate(866,736)"/>
<path d="M0 0 C0.66 0.33 1.32 0.66 2 1 C2 3.31 2 5.62 2 8 C1.01 8.33 0.02 8.66 -1 9 C-2.0326802 6.21176345 -2.04509293 5.1322726 -1.0625 2.25 C-0.711875 1.5075 -0.36125 0.765 0 0 Z " fill="#1F9957" transform="translate(905,653)"/>
<path d="M0 0 C0.33 0.66 0.66 1.32 1 2 C-0.21480305 5.42353587 -2.01771223 7.01180815 -5 9 C-5.66 8.67 -6.32 8.34 -7 8 C-4.69 5.36 -2.38 2.72 0 0 Z " fill="#0C5949" transform="translate(470,537)"/>
<path d="M0 0 C0 0.66 0 1.32 0 2 C-2.31 2.66 -4.62 3.32 -7 4 C-7 3.01 -7 2.02 -7 1 C-3.375 -1.125 -3.375 -1.125 0 0 Z " fill="#23964D" transform="translate(598,891)"/>
<path d="M0 0 C0.66 0.33 1.32 0.66 2 1 C1.67 4.3 1.34 7.6 1 11 C0.67 11 0.34 11 0 11 C-0.19491452 9.54263913 -0.38069358 8.08405407 -0.5625 6.625 C-0.66691406 5.81289063 -0.77132813 5.00078125 -0.87890625 4.1640625 C-1 2 -1 2 0 0 Z " fill="#E5F3F1" transform="translate(510,837)"/>
<path d="M0 0 C0 3 0 3 -1 6 C-3.0625 7.6875 -3.0625 7.6875 -5 9 C-5.66 8.67 -6.32 8.34 -7 8 C-4.69 5.36 -2.38 2.72 0 0 Z " fill="#07583F" transform="translate(307,732)"/>
<path d="M0 0 C0.66 0.33 1.32 0.66 2 1 C0.75023244 4.65316671 0.32901247 5.78065836 -3 8 C-3 4.42424104 -1.91159393 2.94704065 0 0 Z " fill="#229749" transform="translate(832,726)"/>
<path d="M0 0 C1.0326802 2.78823655 1.04509293 3.8677274 0.0625 6.75 C-0.288125 7.4925 -0.63875 8.235 -1 9 C-3 6 -3 6 -2.75 3.375 C-2.5025 2.59125 -2.255 1.8075 -2 1 C-1.34 0.67 -0.68 0.34 0 0 Z " fill="#259956" transform="translate(877,637)"/>
<path d="M0 0 C0.33 0.66 0.66 1.32 1 2 C-0.22934015 5.68802044 -1.93859378 6.72356973 -5 9 C-5.66 8.67 -6.32 8.34 -7 8 C-4.69 5.36 -2.38 2.72 0 0 Z " fill="#065745" transform="translate(399,623)"/>
<path d="M0 0 C1.32 0.66 2.64 1.32 4 2 C3.34 2.66 2.68 3.32 2 4 C2.33 4.66 2.66 5.32 3 6 C1.35 5.67 -0.3 5.34 -2 5 C-1.34 3.35 -0.68 1.7 0 0 Z " fill="#0B4C48" transform="translate(220,504)"/>
<path d="M0 0 C0 3 0 3 -1.3125 4.38671875 C-2.875 5.59114583 -4.4375 6.79557292 -6 8 C-6 5 -6 5 -4.6875 3.61328125 C-3.125 2.40885417 -1.5625 1.20442708 0 0 Z " fill="#035949" transform="translate(197,224)"/>
<path d="M0 0 C1.60379341 -0.05416188 3.20811406 -0.09286638 4.8125 -0.125 C5.70582031 -0.14820312 6.59914063 -0.17140625 7.51953125 -0.1953125 C10 0 10 0 13 2 C9.72814447 3.07310858 7.57052408 2.89263102 4.25 2.0625 C3.05117188 1.77052734 3.05117188 1.77052734 1.828125 1.47265625 C1.22484375 1.31667969 0.6215625 1.16070312 0 1 C0 0.67 0 0.34 0 0 Z " fill="#13675C" transform="translate(480,86)"/>
<path d="M0 0 C0.99 0.33 1.98 0.66 3 1 C2.67 3.97 2.34 6.94 2 10 C1.67 8.68 1.34 7.36 1 6 C0.34 5.67 -0.32 5.34 -1 5 C-0.67 3.35 -0.34 1.7 0 0 Z " fill="#157F62" transform="translate(505,830)"/>
<path d="M0 0 C0.6875 1.8125 0.6875 1.8125 1 4 C-0.3125 5.75 -0.3125 5.75 -2 7 C-2.66 7 -3.32 7 -4 7 C-3.43628586 3.73045798 -2.50037734 2.17424117 0 0 Z " fill="#0A6148" transform="translate(282,763)"/>
<path d="M0 0 C2.86632997 1.05098766 3.83006643 1.66862954 5.25 4.4375 C6 7 6 7 6 10 C4.99421411 8.71283353 3.99553202 7.42011342 3 6.125 C2.443125 5.40570313 1.88625 4.68640625 1.3125 3.9453125 C0 2 0 2 0 0 Z " fill="#08433A" transform="translate(409,484)"/>
<path d="M0 0 C2.475 0.99 2.475 0.99 5 2 C5 2.66 5 3.32 5 4 C2.36 3.67 -0.28 3.34 -3 3 C-2.01 2.01 -1.02 1.02 0 0 Z " fill="#055A4C" transform="translate(578,124)"/>
<path d="M0 0 C1.65 0 3.3 0 5 0 C5 0.99 5 1.98 5 3 C3.02 3.33 1.04 3.66 -1 4 C-1.33 3.34 -1.66 2.68 -2 2 C-1.34 2 -0.68 2 0 2 C0 1.34 0 0.68 0 0 Z " fill="#209447" transform="translate(601,923)"/>
<path d="M0 0 C0.33 0.99 0.66 1.98 1 3 C-0.98 3.99 -2.96 4.98 -5 6 C-5.66 5.34 -6.32 4.68 -7 4 C-5.35 3.67 -3.7 3.34 -2 3 C-2 2.34 -2 1.68 -2 1 C-1.34 0.67 -0.68 0.34 0 0 Z " fill="#239944" transform="translate(713,881)"/>
<path d="M0 0 C-1.65 1.32 -3.3 2.64 -5 4 C-5.66 3.67 -6.32 3.34 -7 3 C-6.67 2.01 -6.34 1.02 -6 0 C-3 -1 -3 -1 0 0 Z " fill="#239643" transform="translate(736,870)"/>
<path d="M0 0 C0.66 0.66 1.32 1.32 2 2 C-0.75 5.875 -0.75 5.875 -3 7 C-3.33 6.01 -3.66 5.02 -4 4 C-2.66666667 2.66666667 -1.33333333 1.33333333 0 0 Z " fill="#239B51" transform="translate(856,688)"/>
<path d="M0 0 C0.66 0.33 1.32 0.66 2 1 C2 3.31 2 5.62 2 8 C1.01 8.33 0.02 8.66 -1 9 C-0.67 6.03 -0.34 3.06 0 0 Z " fill="#1A9557" transform="translate(923,592)"/>
<path d="M0 0 C2.31 0.33 4.62 0.66 7 1 C6.67 1.66 6.34 2.32 6 3 C4.35 3 2.7 3 1 3 C0.67 2.01 0.34 1.02 0 0 Z " fill="#0A6153" transform="translate(608,132)"/>
</svg>
